<?xml version="1.0" encoding="utf-8"?>
<!-- Generator: Adobe Illustrator 20.1.0, SVG Export Plug-In . SVG Version: 6.00 Build 0)  -->
<svg version="1.1" id="Layer_1" xmlns="http://www.w3.org/2000/svg" xmlns:xlink="http://www.w3.org/1999/xlink" x="0px" y="0px"
	 viewBox="0 0 432 648" style="enable-background:new 0 0 432 648;" xml:space="preserve">
<style type="text/css">
	.st0{fill:#FFFFFF;}
	.st1{clip-path:url(#SVGID_2_);}
	.st2{clip-path:url(#SVGID_4_);}
	.st3{clip-path:url(#SVGID_6_);}
	.st4{clip-path:url(#SVGID_8_);}
	.st5{clip-path:url(#SVGID_10_);}
	.st6{clip-path:url(#SVGID_12_);}
	.st7{clip-path:url(#SVGID_14_);}
	.st8{clip-path:url(#SVGID_16_);}
	.st9{clip-path:url(#SVGID_18_);}
	.st10{clip-path:url(#SVGID_20_);}
	.st11{clip-path:url(#SVGID_22_);}
	.st12{clip-path:url(#SVGID_24_);}
	.st13{fill:none;stroke:#FFFFFF;stroke-width:2.5;}
	.st14{clip-path:url(#SVGID_26_);fill:none;stroke:#FFFFFF;stroke-width:2.5;}
	.st15{clip-path:url(#SVGID_28_);fill:none;stroke:#FFFFFF;stroke-width:2.5;}
	.st16{clip-path:url(#SVGID_30_);fill:none;stroke:#FFFFFF;stroke-width:2.5;}
	.st17{clip-path:url(#SVGID_32_);fill:none;stroke:#FFFFFF;stroke-width:2.5;}
	.st18{clip-path:url(#SVGID_34_);fill:none;stroke:#FFFFFF;stroke-width:2.5;}
	.st19{clip-path:url(#SVGID_36_);fill:none;stroke:#FFFFFF;stroke-width:2.5;}
	.st20{clip-path:url(#SVGID_38_);fill:none;stroke:#FFFFFF;stroke-width:2.5;}
	.st21{clip-path:url(#SVGID_40_);}
	.st22{clip-path:url(#SVGID_40_);fill:none;stroke:#FFFFFF;stroke-width:2.5;}
	.st23{clip-path:url(#SVGID_42_);fill:none;stroke:#FFFFFF;stroke-width:2.5;}
	.st24{clip-path:url(#SVGID_44_);fill:none;stroke:#FFFFFF;stroke-width:2.5;}
	.st25{clip-path:url(#SVGID_46_);fill:none;stroke:#FFFFFF;stroke-width:2.5;}
	.st26{clip-path:url(#SVGID_48_);fill:none;stroke:#FFFFFF;stroke-width:2.5;}
</style>
<g>
	<defs>
		<rect id="SVGID_19_" x="-162.4" y="-98.4" width="602.6" height="760.3"/>
	</defs>
	<clipPath id="SVGID_2_">
		<use xlink:href="#SVGID_19_"  style="overflow:visible;"/>
	</clipPath>
</g>
<g>
	<defs>
		<rect id="SVGID_21_" x="-162.4" y="-98.4" width="602.6" height="760.3"/>
	</defs>
	<clipPath id="SVGID_4_">
		<use xlink:href="#SVGID_21_"  style="overflow:visible;"/>
	</clipPath>
</g>
<g>
	<path class="st0" d="M168.3,303.8v-16.7h-19v16.7h-2.5v-34h2.5v14.9h19v-14.9h2.5v34H168.3z"/>
	<path class="st0" d="M204.1,301c-2.1,2-5,3.5-8.7,3.5s-6.6-1.4-8.7-3.5c-3.8-3.7-4.3-9.3-4.3-14.2s0.4-10.5,4.3-14.2
		c2.1-2,5-3.5,8.7-3.5s6.6,1.4,8.7,3.5c3.8,3.7,4.3,9.3,4.3,14.2S207.9,297.3,204.1,301z M202.3,274.2c-1.8-1.7-4.3-2.6-6.9-2.6
		c-2.6,0-5.1,0.9-6.9,2.6c-3.4,3.2-3.5,8.5-3.5,12.5s0.1,9.4,3.5,12.6c1.8,1.7,4.3,2.6,6.9,2.6c2.6,0,5.1-0.9,6.9-2.6
		c3.4-3.2,3.5-8.5,3.5-12.6S205.6,277.4,202.3,274.2z"/>
	<path class="st0" d="M249.4,303.8v-30.4l-12.4,30h-2.2l-12.4-29.7v30.2h-2.4v-34h3.5L236,300l12.3-30.2h3.6v34H249.4z"/>
	<path class="st0" d="M265.1,303.8v-34h21.8v2.4h-19.2v12.5h16.9v2.4h-16.9v14.4h19.2v2.4H265.1z"/>
</g>
<g>
	<rect x="132.2" y="195.8" class="st0" width="2.5" height="179.7"/>
</g>
<g>
	<rect x="201.5" y="195.6" class="st0" width="2.5" height="60.2"/>
</g>
<g>
	<rect x="146" y="195.8" class="st0" width="2.5" height="60.1"/>
</g>
<g>
	<rect x="215.5" y="195.8" class="st0" width="2.5" height="60"/>
</g>
<g>
	<rect x="159.9" y="195.8" class="st0" width="2.5" height="60"/>
</g>
<g>
	<rect x="229.3" y="195.8" class="st0" width="2.5" height="60"/>
</g>
<g>
	<rect x="173.8" y="195.8" class="st0" width="2.5" height="60.1"/>
</g>
<g>
	<rect x="243.2" y="195.8" class="st0" width="2.5" height="60"/>
</g>
<g>
	<rect x="187.6" y="195.8" class="st0" width="2.5" height="60"/>
</g>
<g>
	<defs>
		<rect id="SVGID_23_" x="-162.4" y="-98.4" width="602.6" height="760.3"/>
	</defs>
	<clipPath id="SVGID_6_">
		<use xlink:href="#SVGID_23_"  style="overflow:visible;"/>
	</clipPath>
	<g class="st3">
		<path class="st0" d="M148.5,195.8H146c0-3.1-2.5-5.7-5.7-5.7c-3.1,0-5.7,2.5-5.7,5.7h-2.5c0-4.5,3.7-8.2,8.2-8.2
			C144.9,187.6,148.5,191.3,148.5,195.8z"/>
	</g>
	<g class="st3">
		<path class="st0" d="M209.8,432c-4.5,0-8.2-3.7-8.2-8.2h2.5c0,3.1,2.5,5.7,5.7,5.7c3.1,0,5.7-2.5,5.7-5.7h2.5
			C218,428.3,214.3,432,209.8,432z"/>
	</g>
	<g class="st3">
		<path class="st0" d="M306.8,408c-4.5,0-8.2-3.7-8.2-8.2h2.5c0,3.1,2.5,5.7,5.7,5.7s5.7-2.5,5.7-5.7h2.5
			C315,404.3,311.3,408,306.8,408z"/>
	</g>
	<g class="st3">
		<path class="st0" d="M279.2,468c-4.5,0-8.2-3.7-8.2-8.2h2.5c0,3.1,2.5,5.7,5.7,5.7c3.1,0,5.7-2.5,5.7-5.7h2.5
			C287.3,464.3,283.7,468,279.2,468z"/>
	</g>
	<g class="st3">
		<path class="st0" d="M98.9,432c-4.5,0-8.2-3.7-8.2-8.2h2.5c0,3.1,2.5,5.7,5.7,5.7s5.7-2.5,5.7-5.7h2.5
			C107.1,428.3,103.4,432,98.9,432z"/>
	</g>
	<g class="st3">
		<path class="st0" d="M279.1,240c-4.5,0-8.2-3.7-8.2-8.2h2.5c0,3.1,2.5,5.7,5.7,5.7c3.1,0,5.7-2.5,5.7-5.7h2.5
			C287.3,236.3,283.6,240,279.1,240z"/>
	</g>
	<g class="st3">
		<path class="st0" d="M126.6,383.7c-4.5,0-8.2-3.7-8.2-8.2h2.5c0,3.1,2.5,5.7,5.7,5.7c3.1,0,5.7-2.5,5.7-5.7h2.5
			C134.8,380,131.1,383.7,126.6,383.7z"/>
	</g>
	<g class="st3">
		<path class="st0" d="M334.7,360c-4.5,0-8.2-3.7-8.2-8.2h2.5c0,3.1,2.5,5.7,5.7,5.7s5.7-2.5,5.7-5.7h2.5
			C342.8,356.3,339.2,360,334.7,360z"/>
	</g>
	<g class="st3">
		<path class="st0" d="M362.4,306.5c-4.5,0-8.2-3.7-8.2-8.2h2.5c0,3.1,2.5,5.7,5.7,5.7s5.7-2.5,5.7-5.7h2.5
			C370.5,302.8,366.9,306.5,362.4,306.5z"/>
	</g>
	<g class="st3">
		<path class="st0" d="M390.1,264.2c-4.5,0-8.2-3.7-8.2-8.2h2.5c0,3.1,2.5,5.7,5.7,5.7c3.1,0,5.7-2.5,5.7-5.7h2.5
			C398.3,260.5,394.6,264.2,390.1,264.2z"/>
	</g>
	<g class="st3">
		<path class="st0" d="M71.1,480c-4.5,0-8.2-3.7-8.2-8.2h2.5c0,3.1,2.5,5.7,5.7,5.7s5.7-2.5,5.7-5.7h2.5
			C79.3,476.3,75.6,480,71.1,480z"/>
	</g>
	<g class="st3">
		<path class="st0" d="M43.4,528c-4.5,0-8.2-3.7-8.2-8.2h2.5c0,3.1,2.5,5.7,5.7,5.7s5.7-2.5,5.7-5.7h2.5
			C51.5,524.3,47.9,528,43.4,528z"/>
	</g>
	<g class="st3">
		<path class="st0" d="M15.5,581.7c-4.5,0-8.2-3.7-8.2-8.2h2.5c0,3.1,2.5,5.7,5.7,5.7s5.7-2.5,5.7-5.7h2.5
			C23.7,578,20,581.7,15.5,581.7z"/>
	</g>
	<g class="st3">
		<path class="st0" d="M231.9,195.8h-2.5c0-49-39.9-88.9-88.9-88.9s-88.9,39.9-88.9,88.9H49c0-50.4,41-91.4,91.4-91.4
			C190.9,104.4,231.9,145.4,231.9,195.8z"/>
	</g>
	<g class="st3">
		<path class="st0" d="M162.4,195.9h-2.5c0-10.8-8.7-19.5-19.5-19.5c-10.7,0-19.5,8.8-19.5,19.5h-2.5c0-12.2,9.9-22,22-22
			C152.5,173.9,162.4,183.8,162.4,195.9z"/>
	</g>
	<g class="st3">
		<path class="st0" d="M209.8,445.8c-12.2,0-22-9.9-22-22h2.5c0,10.8,8.8,19.5,19.5,19.5s19.5-8.8,19.5-19.5h2.5
			C231.8,436,221.9,445.8,209.8,445.8z"/>
	</g>
	<g class="st3">
		<path class="st0" d="M190.1,195.9h-2.5c0-25.9-21.2-47.1-47.2-47.1c-26,0-47.2,21.1-47.2,47.1h-2.5c0-27.3,22.3-49.6,49.7-49.6
			S190.1,168.6,190.1,195.9z"/>
	</g>
	<g class="st3">
		<path class="st0" d="M259.5,195.8H257c0-63.7-52.3-115.5-116.6-115.5S23.8,132.1,23.8,195.8h-2.5c0-65,53.4-118,119.1-118
			C206.1,77.8,259.5,130.8,259.5,195.8z"/>
	</g>
	<g class="st3">
		<path class="st0" d="M356.7,196.8h-2.5c0-117.2-96.2-212.6-214.5-212.6C82.4-15.8,28.6,6.3-11.9,46.5
			C-52.4,86.6-74.7,140-74.7,196.8h-2.5c0-57.4,22.6-111.5,63.5-152.1c41-40.6,95.5-63,153.4-63s112.4,22.4,153.4,63
			C334.1,85.3,356.7,139.4,356.7,196.8z"/>
	</g>
	<g class="st3">
		<path class="st0" d="M245.7,195.8h-2.5c0-56.8-46.1-103-102.8-103S37.7,139,37.7,195.8h-2.5c0-58.2,47.2-105.5,105.3-105.5
			S245.7,137.6,245.7,195.8z"/>
	</g>
	<g class="st3">
		<path class="st0" d="M204,195.8h-2.5c0-33-27.4-59.8-61.1-59.8s-61.1,26.8-61.1,59.8h-2.5c0-34.4,28.5-62.3,63.6-62.3
			C175.5,133.5,204,161.4,204,195.8z"/>
	</g>
	<g class="st3">
		<path class="st0" d="M209.7,474.7c-27.5,0-49.9-22.8-49.9-50.9h2.5c0,26.7,21.2,48.4,47.4,48.4s47.4-21.7,47.4-48.4h2.5
			C259.6,451.9,237.2,474.7,209.7,474.7z"/>
	</g>
	<g class="st3">
		<path class="st0" d="M273.4,195.8h-2.5c0-70.5-58.6-127.9-130.5-127.9S9.9,125.3,9.9,195.8H7.4c0-71.9,59.7-130.4,133-130.4
			C213.7,65.4,273.4,123.9,273.4,195.8z"/>
	</g>
	<g class="st3">
		<path class="st0" d="M370.5,196.7H368c0-60.2-23.7-116.9-66.9-159.4C258.1-5.3,200.7-28.8,139.8-28.8c-61,0-118.3,23.5-161.4,66.1
			c-43.1,42.6-66.9,99.2-66.9,159.4H-91c0-60.9,24-118.2,67.6-161.2C20.2-7.6,78.1-31.3,139.8-31.3S259.4-7.6,302.9,35.5
			C346.5,78.6,370.5,135.8,370.5,196.7z"/>
	</g>
	<g class="st3">
		<path class="st0" d="M287.3,195.9h-2.5c0-78-64.8-141.5-144.4-141.5S-4,117.9-4,195.9h-2.5c0-79.4,65.9-144,146.9-144
			S287.3,116.5,287.3,195.9z"/>
	</g>
	<g class="st3">
		<path class="st0" d="M384.4,196.8h-2.5c0-63.4-25.2-123.1-70.9-168C265.2-16,204.4-40.7,139.7-40.7S14.2-16-31.5,28.8
			c-45.7,44.9-70.9,104.5-70.9,168h-2.5c0-64.1,25.5-124.4,71.7-169.7c46.2-45.3,107.7-70.3,173-70.3c65.4,0,126.8,25,173,70.3
			C359,72.4,384.4,132.7,384.4,196.8z"/>
	</g>
	<g class="st3">
		<path class="st0" d="M301.1,195.9h-2.5c0-86.3-71-156.5-158.3-156.5S-17.9,109.6-17.9,195.9h-2.5c0-87.7,72.1-159,160.8-159
			S301.1,108.2,301.1,195.9z"/>
	</g>
	<g class="st3">
		<path class="st0" d="M398.3,196.8h-2.5C395.8,128.9,369,65,320.5,17c-48.6-48-113.1-74.5-181.8-74.5S5.5-31.1-43.1,17
			c-48.6,48-75.3,111.9-75.3,179.8h-2.5c0-68.6,27-133.1,76-181.6C4.2-33.3,69.4-60,138.7-60s134.5,26.7,183.5,75.2
			C371.3,63.7,398.3,128.2,398.3,196.8z"/>
	</g>
	<g class="st3">
		<path class="st0" d="M315,195.9h-2.5c0-93.2-77.2-169.1-172.1-169.1S-31.7,102.7-31.7,195.9h-2.5c0-94.6,78.3-171.6,174.6-171.6
			C236.7,24.3,315,101.3,315,195.9z"/>
	</g>
	<g class="st3">
		<path class="st0" d="M412.4,196.7h-2.5c0-71.1-28.2-137.9-79.4-188.1c-51.2-50.2-119.3-77.9-191.7-77.9S-1.6-41.6-52.8,8.6
			c-51.2,50.2-79.4,117-79.4,188.1h-2.5c0-71.7,28.5-139.2,80.1-189.9C-2.9-43.9,65.8-71.8,138.8-71.8c73.1,0,141.7,27.9,193.4,78.6
			C383.9,57.6,412.4,125,412.4,196.7z"/>
	</g>
	<g class="st3">
		<path class="st0" d="M328.9,195.8h-2.5c0-101.4-83.4-184-186-184c-102.6,0-186,82.5-186,184h-2.5C-48.2,93,36.4,9.3,140.3,9.3
			C244.3,9.3,328.9,93,328.9,195.8z"/>
	</g>
	<g class="st3">
		<path class="st0" d="M426.2,196.7h-2.5c0-75.2-29.6-145.9-83.4-199.1C286.5-55.6,215-84.9,138.9-84.9C62.8-84.9-8.7-55.6-62.5-2.4
			c-53.8,53.2-83.4,123.9-83.4,199.1h-2.5c0-75.9,29.9-147.2,84.2-200.9C-10-57.9,62.1-87.4,138.9-87.4S287.8-57.9,342.1-4.2
			C396.3,49.5,426.2,120.8,426.2,196.7z"/>
	</g>
	<g class="st3">
		<path class="st0" d="M342.8,195.9h-2.5c0-108.3-90-196.5-200.6-196.5S-60.9,87.6-60.9,195.9h-2.5C-63.4,86.2,27.7-3,139.7-3
			C251.7-3,342.8,86.2,342.8,195.9z"/>
	</g>
	<g class="st3">
		<path class="st0" d="M440.2,196.7h-2.5c0-78.2-31.1-151.7-87.5-206.9c-56.4-55.3-131.5-85.7-211.3-85.7S-15.9-65.5-72.4-10.2
			c-56.4,55.3-87.5,128.8-87.5,206.9h-2.5c0-78.8,31.3-153,88.3-208.7c56.9-55.7,132.6-86.4,213-86.4S295-67.7,351.9-12
			C408.9,43.8,440.2,117.9,440.2,196.7z"/>
	</g>
	<g class="st3">
		<path class="st0" d="M176.3,195.8h-2.5c0-18.5-14.9-33.5-33.3-33.5s-33.3,15-33.3,33.5h-2.5c0-19.9,16.1-36,35.8-36
			S176.3,176,176.3,195.8z"/>
	</g>
	<g class="st3">
		<path class="st0" d="M209.8,459.8c-19.8,0-35.9-16.1-35.9-36h2.5c0,18.5,15,33.5,33.4,33.5s33.4-15,33.4-33.5h2.5
			C245.8,443.6,229.6,459.8,209.8,459.8z"/>
	</g>
	<g class="st3">
		<path class="st0" d="M218,195.8h-2.5c0-41.5-33.7-75.3-75-75.3s-75,33.8-75,75.3h-2.5c0-42.9,34.8-77.8,77.5-77.8
			S218,152.9,218,195.8z"/>
	</g>
</g>
<g>
	<rect x="257" y="195.8" class="st0" width="2.5" height="60.1"/>
</g>
<g>
	<rect x="326.4" y="195.8" class="st0" width="2.5" height="156"/>
</g>
<g>
	<rect x="7.4" y="195.8" class="st0" width="2.5" height="377.8"/>
</g>
<g>
	<rect x="270.9" y="195.8" class="st0" width="2.5" height="36"/>
</g>
<g>
	<rect x="340.3" y="195.9" class="st0" width="2.5" height="155.9"/>
</g>
<g>
	<rect x="21.3" y="195.8" class="st0" width="2.5" height="377.7"/>
</g>
<g>
	<rect x="284.8" y="196" class="st0" width="2.5" height="35.8"/>
</g>
<g>
	<rect x="354.2" y="195.9" class="st0" width="2.5" height="102.4"/>
</g>
<g>
	<rect x="35.2" y="195.8" class="st0" width="2.5" height="324"/>
</g>
<g>
	<rect x="298.6" y="195.8" class="st0" width="2.5" height="204"/>
</g>
<g>
	<rect x="368" y="196" class="st0" width="2.5" height="102.4"/>
</g>
<g>
	<rect x="49" y="195.8" class="st0" width="2.5" height="324"/>
</g>
<g>
	<rect x="312.5" y="195.9" class="st0" width="2.5" height="203.9"/>
</g>
<g>
	<rect x="395.8" y="196.1" class="st0" width="2.5" height="60"/>
</g>
<g>
	<rect x="76.8" y="195.8" class="st0" width="2.5" height="276"/>
</g>
<g>
	<rect x="90.7" y="195.8" class="st0" width="2.5" height="228"/>
</g>
<g>
	<rect x="104.6" y="195.8" class="st0" width="2.5" height="228"/>
</g>
<g>
	<rect x="118.4" y="195.8" class="st0" width="2.5" height="179.7"/>
</g>
<g>
	<rect x="381.9" y="196" class="st0" width="2.5" height="60"/>
</g>
<g>
	<rect x="62.9" y="195.8" class="st0" width="2.5" height="276"/>
</g>
<g>
	<rect x="201.6" y="315.6" class="st0" width="2.5" height="108.2"/>
</g>
<g>
	<rect x="215.5" y="315.6" class="st0" width="2.5" height="108.2"/>
</g>
<g>
	<rect x="160" y="315.6" class="st0" width="2.5" height="108.2"/>
</g>
<g>
	<rect x="229.4" y="315.6" class="st0" width="2.5" height="108.2"/>
</g>
<g>
	<rect x="173.8" y="315.7" class="st0" width="2.5" height="108.1"/>
</g>
<g>
	<rect x="243.3" y="315.6" class="st0" width="2.5" height="108.2"/>
</g>
<g>
	<rect x="187.7" y="315.6" class="st0" width="2.5" height="108.2"/>
</g>
<g>
	<rect x="257.1" y="315.7" class="st0" width="2.5" height="108.1"/>
</g>
<g>
	<rect x="271" y="315.8" class="st0" width="2.5" height="144"/>
</g>
<g>
	<rect x="284.8" y="315.7" class="st0" width="2.5" height="144.1"/>
</g>
</svg>
