<?xml version="1.0" encoding="utf-8"?>
<!-- Generator: Adobe Illustrator 20.1.0, SVG Export Plug-In . SVG Version: 6.00 Build 0)  -->
<svg version="1.1" id="Layer_1" xmlns="http://www.w3.org/2000/svg" xmlns:xlink="http://www.w3.org/1999/xlink" x="0px" y="0px"
	 viewBox="0 0 432 648" style="enable-background:new 0 0 432 648;" xml:space="preserve">
<style type="text/css">
	.st0{fill:#FFFFFF;}
	.st1{clip-path:url(#SVGID_2_);}
	.st2{clip-path:url(#SVGID_4_);}
	.st3{clip-path:url(#SVGID_6_);}
	.st4{clip-path:url(#SVGID_8_);}
	.st5{clip-path:url(#SVGID_10_);}
	.st6{clip-path:url(#SVGID_12_);}
	.st7{clip-path:url(#SVGID_14_);}
	.st8{clip-path:url(#SVGID_16_);}
	.st9{clip-path:url(#SVGID_18_);}
	.st10{clip-path:url(#SVGID_20_);}
	.st11{clip-path:url(#SVGID_22_);}
	.st12{clip-path:url(#SVGID_24_);}
	.st13{fill:none;stroke:#FFFFFF;stroke-width:2.5;}
	.st14{clip-path:url(#SVGID_26_);fill:none;stroke:#FFFFFF;stroke-width:2.5;}
	.st15{clip-path:url(#SVGID_28_);fill:none;stroke:#FFFFFF;stroke-width:2.5;}
	.st16{clip-path:url(#SVGID_30_);fill:none;stroke:#FFFFFF;stroke-width:2.5;}
	.st17{clip-path:url(#SVGID_32_);fill:none;stroke:#FFFFFF;stroke-width:2.5;}
	.st18{clip-path:url(#SVGID_34_);fill:none;stroke:#FFFFFF;stroke-width:2.5;}
	.st19{clip-path:url(#SVGID_36_);fill:none;stroke:#FFFFFF;stroke-width:2.5;}
	.st20{clip-path:url(#SVGID_38_);fill:none;stroke:#FFFFFF;stroke-width:2.5;}
	.st21{clip-path:url(#SVGID_40_);}
	.st22{clip-path:url(#SVGID_40_);fill:none;stroke:#FFFFFF;stroke-width:2.5;}
	.st23{clip-path:url(#SVGID_42_);fill:none;stroke:#FFFFFF;stroke-width:2.5;}
	.st24{clip-path:url(#SVGID_44_);fill:none;stroke:#FFFFFF;stroke-width:2.5;}
	.st25{clip-path:url(#SVGID_46_);fill:none;stroke:#FFFFFF;stroke-width:2.5;}
	.st26{clip-path:url(#SVGID_48_);fill:none;stroke:#FFFFFF;stroke-width:2.5;}
</style>
<g>
	<g>
		<path class="st0" d="M149.7,219.3c-2.1,2-5,3.5-8.7,3.5s-6.6-1.4-8.7-3.5c-3.8-3.7-4.3-9.3-4.3-14.2s0.4-10.5,4.3-14.2
			c2.1-2,5-3.5,8.7-3.5s6.6,1.4,8.7,3.5c3.8,3.7,4.3,9.3,4.3,14.2S153.5,215.6,149.7,219.3z M147.9,192.6c-1.8-1.7-4.3-2.6-6.9-2.6
			s-5.1,0.9-6.9,2.6c-3.4,3.2-3.5,8.5-3.5,12.5s0.1,9.4,3.5,12.6c1.8,1.7,4.3,2.6,6.9,2.6s5.1-0.9,6.9-2.6c3.4-3.2,3.5-8.5,3.5-12.6
			S151.2,195.8,147.9,192.6z"/>
	</g>
	<g>
		<path class="st0" d="M194.4,281.7l-3.5-9h-16.5l-3.4,9h-2.6l12.9-34h2.4l13.1,34H194.4z M182.6,251.1l-7.2,19.2H190L182.6,251.1z"
			/>
	</g>
	<g>
		<path class="st0" d="M241.8,255c-2.3,2.3-5.7,3.3-9.6,3.3c-3.9,0-7.2-1.2-9.5-3.6c-1.7-1.8-2.8-4.2-3.1-6.8h2.6
			c0.2,2,1.2,3.9,2.5,5.2c1.8,1.9,4.7,2.8,7.5,2.8c2.9,0,5.9-0.8,7.7-2.5c1.2-1.2,2-2.7,2-4.9c0-3.3-2.5-6.1-6.6-6.6l-6.3-0.8
			c-4.8-0.6-8.4-3.4-8.4-8.6c0-2.8,1.2-4.8,3-6.4c2.1-1.9,5.2-3,8.4-3c3.6,0,7.3,1.5,9.2,3.7c1.4,1.7,2.4,3.5,2.6,5.9h-2.5
			c-0.2-1.7-0.8-3-1.9-4.3c-1.5-1.8-4.3-2.9-7.4-2.9c-2.4,0-4.8,0.6-6.5,2.1c-1.3,1.2-2.3,2.7-2.3,4.9c0,4,2.9,5.6,6,6l6.4,0.8
			c5.3,0.7,8.9,4.5,8.9,9.3C244.4,251.4,243.3,253.4,241.8,255z"/>
		<path class="st0" d="M255.5,257.7v-34h2.5v34H255.5z"/>
		<path class="st0" d="M291,255c-2.3,2.3-5.7,3.3-9.6,3.3c-3.9,0-7.2-1.2-9.5-3.6c-1.7-1.8-2.8-4.2-3.1-6.8h2.6
			c0.2,2,1.2,3.9,2.5,5.2c1.8,1.9,4.7,2.8,7.5,2.8c2.9,0,5.9-0.8,7.7-2.5c1.2-1.2,2-2.7,2-4.9c0-3.3-2.5-6.1-6.6-6.6l-6.3-0.8
			c-4.8-0.6-8.4-3.4-8.4-8.6c0-2.8,1.2-4.8,3-6.4c2.1-1.9,5.2-3,8.4-3c3.6,0,7.3,1.5,9.2,3.7c1.4,1.7,2.4,3.5,2.6,5.9h-2.5
			c-0.2-1.7-0.8-3-1.9-4.3c-1.5-1.8-4.3-2.9-7.4-2.9c-2.4,0-4.8,0.6-6.5,2.1c-1.3,1.2-2.3,2.7-2.3,4.9c0,4,2.9,5.6,6,6l6.4,0.8
			c5.3,0.7,8.9,4.5,8.9,9.3C293.7,251.4,292.6,253.4,291,255z"/>
	</g>
	<g>
		<path class="st0" d="M326.3,83.2c0-0.3-0.2-0.5-0.5-0.5h-0.7v-1.1h5c2,0,3.1,0.6,3.1,2.3s-1.2,2.3-3.4,2.3h-1.3v1.9
			c0,0.3,0.2,0.5,0.5,0.5h0.8v1.1h-4.7v-1.1h0.7c0.3,0,0.5-0.2,0.5-0.5V83.2z M328.6,85.1h1c0.8,0,1.4-0.5,1.4-1.2s-0.5-1.2-1.2-1.2
			h-1.2V85.1z"/>
		<path class="st0" d="M341.1,87.6v0.7c0,1.2-0.5,1.6-1.8,1.6c-0.6,0-1.1-0.3-1.3-0.9c-0.5,0.6-1.1,0.9-1.8,0.9
			c-1.1,0-1.8-0.4-1.8-1.7c0-2.3,3.6-0.9,3.6-2.5c0-0.8-0.5-1.1-1.2-1.1c-0.3,0-0.7,0-0.9,0.2v0c0.4,0,0.8,0.2,0.8,0.7
			c0,0.5-0.5,0.8-0.9,0.8c-0.6,0-1-0.3-1-0.9c0-1.3,1.8-1.5,2.8-1.5c1.6,0,2.5,0.4,2.5,2.1v2.2c0,0.3,0,0.5,0.2,0.5
			c0.3,0,0.4-0.2,0.4-0.8v-0.3H341.1z M337.8,86.8c-0.6,0.3-1.5,0.4-1.5,1.2c0,0.5,0.3,0.7,0.7,0.7c0.7,0,0.9-0.5,0.9-1V86.8z"/>
		<path class="st0" d="M342.1,84h2.8v1h0c0.2-0.6,0.7-1.1,1.4-1.1c0.7,0,1.4,0.6,1.4,1.4c0,0.5-0.4,1.1-1,1.1c-0.5,0-1-0.2-1-0.8
			c0-0.4,0.2-0.7,0.6-0.7c-0.1-0.1-0.2-0.1-0.4-0.1c-0.6,0-1,0.8-1,1.4v2.1c0,0.3,0.1,0.5,0.4,0.5h0.5v1h-3.8v-1h0.5
			c0.3,0,0.4-0.2,0.4-0.5v-2.7c0-0.3-0.1-0.5-0.4-0.5h-0.5V84z"/>
		<path class="st0" d="M351.6,81.8V84h1.5v1h-1.5v3.3c0,0.3,0.1,0.5,0.4,0.5c0.5,0,0.6-0.3,0.6-0.9v-0.9h1V88c0,1.2-0.6,1.8-2,1.8
			c-1.2,0-1.9-0.6-1.9-1.8v-3h-0.8v-1c1.2,0,1.5-1.2,1.6-2.2H351.6z"/>
		<path class="st0" d="M359.1,89.6v-0.5c0-3,4-2.7,4-4.7c0-0.9-0.7-1.3-1.5-1.3c-0.6,0-1.3,0.3-1.5,1c0.1-0.1,0.3-0.1,0.5-0.1
			c0.5,0,0.8,0.4,0.8,0.9c0,0.4-0.2,1-1.1,1c-0.7,0-1.2-0.5-1.2-1.2c0-1.7,1.7-2.4,3.2-2.4c1.5,0,3,0.7,3,2.4c0,2.9-3.8,2-4.9,3.7
			l0,0c0.5-0.3,0.9-0.5,1.5-0.5c0.4,0,0.7,0.1,1,0.1s0.6,0.1,1,0.1c0.6,0,0.6-0.6,0.6-1h1v0.6c0,1.4-0.7,2.1-2.1,2.1
			c-0.6,0-1-0.2-1.5-0.3s-0.8-0.3-1.2-0.3c-0.4,0-0.6,0.1-0.7,0.5H359.1z"/>
	</g>
	<g>
		<defs>
			<rect id="SVGID_5_" x="99.4" y="39.7" width="285.7" height="470.1"/>
		</defs>
		<clipPath id="SVGID_2_">
			<use xlink:href="#SVGID_5_"  style="overflow:visible;"/>
		</clipPath>
		<g class="st1">
			<path class="st0" d="M282.9,173.8h-2.5c0-3.1-2.5-5.7-5.7-5.7c-3.1,0-5.7,2.5-5.7,5.7h-2.5c0-4.5,3.7-8.2,8.2-8.2
				C279.3,165.6,282.9,169.3,282.9,173.8z"/>
		</g>
		<g class="st1">
			<path class="st0" d="M311,209.8h-2.5c0-3.1-2.5-5.7-5.7-5.7c-3.1,0-5.7,2.5-5.7,5.7h-2.5c0-4.5,3.7-8.2,8.2-8.2
				C307.4,201.6,311,205.3,311,209.8z"/>
		</g>
		<g class="st1">
			<path class="st0" d="M324.9,209.7h-2.5c0-3.1-2.6-5.7-5.7-5.7s-5.7,2.5-5.7,5.7h-2.5c0-4.5,3.7-8.2,8.2-8.2
				S324.9,205.2,324.9,209.7z"/>
		</g>
		<g class="st1">
			<path class="st0" d="M115.7,209.7h-2.5c0-3.1-2.5-5.7-5.6-5.7s-5.6,2.5-5.6,5.7h-2.5c0-4.5,3.6-8.2,8.1-8.2
				S115.7,205.2,115.7,209.7z"/>
		</g>
		<g class="st1">
			<path class="st0" d="M129.6,173.8h-2.5c0-3.1-2.5-5.7-5.7-5.7s-5.7,2.5-5.7,5.7h-2.5c0-4.5,3.7-8.2,8.2-8.2
				C125.9,165.6,129.6,169.3,129.6,173.8z"/>
		</g>
		<g class="st1">
			<path class="st0" d="M288.5,389c-4.5,0-8.2-3.7-8.2-8.2h2.5c0,3.1,2.5,5.7,5.7,5.7c3.1,0,5.7-2.5,5.7-5.7h2.5
				C296.7,385.3,293,389,288.5,389z"/>
		</g>
		<g class="st1">
			<path class="st0" d="M234.6,385.9c-4.5,0-8.2-3.7-8.2-8.2h2.5c0,3.1,2.6,5.7,5.7,5.7s5.7-2.5,5.7-5.7h2.5
				C242.8,382.2,239.1,385.9,234.6,385.9z"/>
		</g>
		<g class="st1">
			<path class="st0" d="M177,385.9c-4.5,0-8.2-3.7-8.2-8.2h2.5c0,3.1,2.6,5.7,5.7,5.7c3.2,0,5.7-2.5,5.7-5.7h2.5
				C185.3,382.2,181.6,385.9,177,385.9z"/>
		</g>
		<g class="st1">
			<path class="st0" d="M282.9,125.5h-2.5c0-3.1-2.5-5.7-5.7-5.7c-3.1,0-5.7,2.5-5.7,5.7h-2.5c0-4.5,3.7-8.2,8.2-8.2
				C279.3,117.3,282.9,121,282.9,125.5z"/>
		</g>
		<g class="st1">
			<path class="st0" d="M240.3,125.8h-2.5c0-3.1-2.5-5.7-5.7-5.7s-5.7,2.5-5.7,5.7H224c0-4.5,3.7-8.2,8.2-8.2
				S240.3,121.3,240.3,125.8z"/>
		</g>
		<g class="st1">
			<path class="st0" d="M199.1,125.8h-2.5c0-3.1-2.5-5.7-5.7-5.7s-5.7,2.5-5.7,5.7h-2.5c0-4.5,3.7-8.2,8.2-8.2
				C195.4,117.6,199.1,121.3,199.1,125.8z"/>
		</g>
		<g class="st1">
			<path class="st0" d="M157.3,125.8h-2.5c0-3.1-2.5-5.7-5.7-5.7s-5.7,2.5-5.7,5.7h-2.5c0-4.5,3.7-8.2,8.2-8.2
				C153.6,117.6,157.3,121.3,157.3,125.8z"/>
		</g>
		<g class="st1">
			<path class="st0" d="M241.6,173.8h-2.5c0-3.1-2.5-5.7-5.7-5.7s-5.7,2.5-5.7,5.7h-2.5c0-4.5,3.7-8.2,8.2-8.2
				S241.6,169.3,241.6,173.8z"/>
		</g>
		<g class="st1">
			<path class="st0" d="M199.1,173.8h-2.5c0-3.1-2.5-5.7-5.7-5.7s-5.7,2.5-5.7,5.7h-2.5c0-4.5,3.7-8.2,8.2-8.2
				C195.4,165.6,199.1,169.3,199.1,173.8z"/>
		</g>
		<g class="st1">
			<path class="st0" d="M157.5,173.8H155c0-3.1-2.5-5.7-5.7-5.7s-5.7,2.5-5.7,5.7h-2.5c0-4.5,3.7-8.2,8.2-8.2
				C153.9,165.6,157.5,169.3,157.5,173.8z"/>
		</g>
		<g class="st1">
			<path class="st0" d="M171.6,173.8h-2.5c0-10.8-8.9-19.5-19.8-19.5c-10.9,0-19.8,8.8-19.8,19.5h-2.5c0-12.2,10-22,22.3-22
				C161.6,151.7,171.6,161.6,171.6,173.8z"/>
		</g>
		<g class="st1">
			<path class="st0" d="M171.6,125.8h-2.5c0-10.8-8.9-19.5-19.8-19.5c-10.9,0-19.8,8.8-19.8,19.5h-2.5c0-12.2,10-22,22.3-22
				C161.6,103.8,171.6,113.7,171.6,125.8z"/>
		</g>
		<g class="st1">
			<path class="st0" d="M255.1,173.8h-2.5c0-10.8-8.7-19.5-19.4-19.5c-10.7,0-19.4,8.8-19.4,19.5h-2.5c0-12.2,9.8-22,21.9-22
				C245.3,151.7,255.1,161.6,255.1,173.8z"/>
		</g>
		<g class="st1">
			<path class="st0" d="M255.1,125.8h-2.5c0-10.8-8.7-19.5-19.4-19.5c-10.7,0-19.4,8.8-19.4,19.5h-2.5c0-12.2,9.8-22,21.9-22
				C245.3,103.8,255.1,113.7,255.1,125.8z"/>
		</g>
		<g class="st1">
			<path class="st0" d="M297.2,173.6h-2.5c0-10.8-8.9-19.5-19.8-19.5s-19.8,8.8-19.8,19.5h-2.5c0-12.2,10-22,22.3-22
				C287.2,151.6,297.2,161.4,297.2,173.6z"/>
		</g>
		<g class="st1">
			<path class="st0" d="M297.2,125.6h-2.5c0-10.8-8.9-19.5-19.8-19.5s-19.8,8.8-19.8,19.5h-2.5c0-12.2,10-22,22.3-22
				C287.2,103.6,297.2,113.5,297.2,125.6z"/>
		</g>
		<g class="st1">
			<path class="st0" d="M213.8,173.8h-2.5c0-10.8-8.9-19.5-19.8-19.5c-10.9,0-19.8,8.8-19.8,19.5h-2.5c0-12.2,10-22,22.3-22
				C203.8,151.7,213.8,161.6,213.8,173.8z"/>
		</g>
		<g class="st1">
			<path class="st0" d="M213.8,125.8h-2.5c0-10.8-8.9-19.5-19.8-19.5c-10.9,0-19.8,8.8-19.8,19.5h-2.5c0-12.2,10-22,22.3-22
				C203.8,103.8,213.8,113.7,213.8,125.8z"/>
		</g>
		<g class="st1">
			<path class="st0" d="M213.8,125.5h-2.5c0-22.8-18.3-41.3-40.9-41.3c-22.5,0-40.9,18.5-40.9,41.3h-2.5c0-24.1,19.4-43.8,43.4-43.8
				C194.3,81.7,213.8,101.3,213.8,125.5z"/>
		</g>
		<g class="st1">
			<path class="st0" d="M297.2,125.5h-2.5c0-45.9-37-83.3-82.6-83.3s-82.6,37.4-82.6,83.3h-2.5c0-47.3,38.2-85.8,85.1-85.8
				C259,39.7,297.2,78.2,297.2,125.5z"/>
		</g>
		<g class="st1">
			<path class="st0" d="M297.2,125.5h-2.5c0-22.8-18.1-41.3-40.5-41.3c-22.3,0-40.5,18.5-40.5,41.3h-2.5c0-24.1,19.3-43.8,43-43.8
				S297.2,101.3,297.2,125.5z"/>
		</g>
	</g>
	<g>
		<rect x="127.1" y="125.6" class="st0" width="2.5" height="48"/>
	</g>
	<g>
		<rect x="182.8" y="173.7" class="st0" width="2.5" height="60"/>
	</g>
	<g>
		<rect x="196.6" y="173.7" class="st0" width="2.5" height="60"/>
	</g>
	<g>
		<rect x="225.2" y="173.7" class="st0" width="2.5" height="36"/>
	</g>
	<g>
		<defs>
			<rect id="SVGID_7_" x="99.4" y="39.7" width="285.7" height="470.1"/>
		</defs>
		<clipPath id="SVGID_4_">
			<use xlink:href="#SVGID_7_"  style="overflow:visible;"/>
		</clipPath>
		<g class="st2">
			<rect x="212.5" y="269.7" class="st0" width="2.5" height="240.1"/>
		</g>
		<g class="st2">
			<rect x="196.6" y="293.7" class="st0" width="2.5" height="216.1"/>
		</g>
	</g>
	<g>
		<rect x="182.8" y="293.7" class="st0" width="2.5" height="84"/>
	</g>
	<g>
		<rect x="168.8" y="293.7" class="st0" width="2.5" height="84"/>
	</g>
	<g>
		<rect x="240.3" y="269.7" class="st0" width="2.5" height="108"/>
	</g>
	<g>
		<rect x="239.1" y="173.7" class="st0" width="2.5" height="36"/>
	</g>
	<g>
		<rect x="226.4" y="269.7" class="st0" width="2.5" height="108"/>
	</g>
	<g>
		<g>
			<rect x="252.6" y="269.7" class="st0" width="2.5" height="240"/>
		</g>
		<g>
			<rect x="139.5" y="233.7" class="st0" width="2.5" height="276"/>
		</g>
		<g>
			<rect x="127.1" y="233.7" class="st0" width="2.5" height="276.1"/>
		</g>
		<g>
			<rect x="113.2" y="173.6" class="st0" width="2.5" height="336.2"/>
		</g>
	</g>
	<g>
		<rect x="322.4" y="209.7" class="st0" width="2.5" height="131.6"/>
	</g>
	<g>
		<rect x="266.6" y="269.7" class="st0" width="2.5" height="240"/>
	</g>
	<g>
		<rect x="153.1" y="233.7" class="st0" width="2.5" height="276"/>
	</g>
	<g>
		<rect x="280.3" y="269.7" class="st0" width="2.5" height="111.1"/>
	</g>
	<g>
		<rect x="294.2" y="269.7" class="st0" width="2.5" height="111.1"/>
	</g>
	<g>
		<g>
			<rect x="308.5" y="209.8" class="st0" width="2.5" height="300"/>
		</g>
	</g>
	<g>
		<rect x="266.6" y="173.8" class="st0" width="2.5" height="36"/>
	</g>
	<g>
		<rect x="280.4" y="173.7" class="st0" width="2.5" height="36"/>
	</g>
	<g>
		<rect x="211.3" y="125.5" class="st0" width="2.5" height="84.2"/>
	</g>
	<g>
		<rect x="169.1" y="125.8" class="st0" width="2.5" height="107.9"/>
	</g>
	<g>
		<rect x="252.6" y="125.8" class="st0" width="2.5" height="83.9"/>
	</g>
	<g>
		<rect x="294.7" y="125.5" class="st0" width="2.5" height="84.2"/>
	</g>
	<g>
		<rect x="99.4" y="209.7" class="st0" width="2.5" height="131.6"/>
	</g>
</g>
</svg>
