<?xml version="1.0" encoding="utf-8"?>
<!-- Generator: Adobe Illustrator 20.1.0, SVG Export Plug-In . SVG Version: 6.00 Build 0)  -->
<svg version="1.1" id="Layer_1" xmlns="http://www.w3.org/2000/svg" xmlns:xlink="http://www.w3.org/1999/xlink" x="0px" y="0px"
	 viewBox="0 0 432 648" style="enable-background:new 0 0 432 648;" xml:space="preserve">
<style type="text/css">
	.st0{fill:#FFFFFF;}
	.st1{clip-path:url(#SVGID_2_);}
	.st2{clip-path:url(#SVGID_4_);}
	.st3{clip-path:url(#SVGID_6_);}
	.st4{clip-path:url(#SVGID_8_);}
	.st5{clip-path:url(#SVGID_10_);}
	.st6{clip-path:url(#SVGID_12_);}
	.st7{clip-path:url(#SVGID_14_);}
	.st8{clip-path:url(#SVGID_16_);}
	.st9{clip-path:url(#SVGID_18_);}
	.st10{clip-path:url(#SVGID_20_);}
	.st11{clip-path:url(#SVGID_22_);}
	.st12{clip-path:url(#SVGID_24_);}
	.st13{fill:none;stroke:#FFFFFF;stroke-width:2.5;}
	.st14{clip-path:url(#SVGID_26_);fill:none;stroke:#FFFFFF;stroke-width:2.5;}
	.st15{clip-path:url(#SVGID_28_);fill:none;stroke:#FFFFFF;stroke-width:2.5;}
	.st16{clip-path:url(#SVGID_30_);fill:none;stroke:#FFFFFF;stroke-width:2.5;}
	.st17{clip-path:url(#SVGID_32_);fill:none;stroke:#FFFFFF;stroke-width:2.5;}
	.st18{clip-path:url(#SVGID_34_);fill:none;stroke:#FFFFFF;stroke-width:2.5;}
	.st19{clip-path:url(#SVGID_36_);fill:none;stroke:#FFFFFF;stroke-width:2.5;}
	.st20{clip-path:url(#SVGID_38_);fill:none;stroke:#FFFFFF;stroke-width:2.5;}
	.st21{clip-path:url(#SVGID_40_);}
	.st22{clip-path:url(#SVGID_40_);fill:none;stroke:#FFFFFF;stroke-width:2.5;}
	.st23{clip-path:url(#SVGID_42_);fill:none;stroke:#FFFFFF;stroke-width:2.5;}
	.st24{clip-path:url(#SVGID_44_);fill:none;stroke:#FFFFFF;stroke-width:2.5;}
	.st25{clip-path:url(#SVGID_46_);fill:none;stroke:#FFFFFF;stroke-width:2.5;}
	.st26{clip-path:url(#SVGID_48_);fill:none;stroke:#FFFFFF;stroke-width:2.5;}
</style>
<g>
	<defs>
		<rect id="SVGID_15_" x="58.3" y="80.4" width="348.4" height="369.6"/>
	</defs>
	<clipPath id="SVGID_2_">
		<use xlink:href="#SVGID_15_"  style="overflow:visible;"/>
	</clipPath>
	<g class="st1">
		<g>
			<path class="st0" d="M324.2,83.3c0-0.3-0.2-0.5-0.5-0.5H323v-1.1h5c2,0,3.1,0.6,3.1,2.3s-1.2,2.3-3.4,2.3h-1.3v1.9
				c0,0.3,0.2,0.5,0.5,0.5h0.8v1.1H323v-1.1h0.7c0.3,0,0.5-0.2,0.5-0.5V83.3z M326.5,85.3h1c0.8,0,1.4-0.5,1.4-1.2
				c0-0.7-0.5-1.2-1.2-1.2h-1.2V85.3z"/>
		</g>
		<g>
			<path class="st0" d="M339,87.7v0.7c0,1.2-0.5,1.6-1.8,1.6c-0.6,0-1.1-0.3-1.3-0.9c-0.5,0.6-1.1,0.9-1.8,0.9
				c-1.1,0-1.8-0.4-1.8-1.7c0-2.3,3.6-0.9,3.6-2.5c0-0.8-0.5-1.1-1.2-1.1c-0.3,0-0.7,0-0.9,0.2v0c0.4,0,0.8,0.2,0.8,0.7
				c0,0.5-0.5,0.8-0.9,0.8c-0.6,0-1-0.3-1-0.9c0-1.3,1.8-1.5,2.8-1.5c1.6,0,2.5,0.4,2.5,2.1v2.2c0,0.3,0,0.5,0.2,0.5
				c0.3,0,0.4-0.2,0.4-0.8v-0.3H339z M335.7,87c-0.6,0.3-1.5,0.4-1.5,1.2c0,0.5,0.3,0.7,0.7,0.7c0.7,0,0.9-0.5,0.9-1V87z"/>
		</g>
		<g>
			<path class="st0" d="M340,84.1h2.8v1h0c0.2-0.6,0.7-1.1,1.4-1.1c0.7,0,1.4,0.6,1.4,1.4c0,0.5-0.4,1.1-1,1.1c-0.5,0-1-0.2-1-0.8
				c0-0.4,0.2-0.7,0.6-0.7c-0.1-0.1-0.2-0.1-0.4-0.1c-0.6,0-1,0.8-1,1.4v2.1c0,0.3,0.1,0.5,0.4,0.5h0.5v1H340v-1h0.5
				c0.3,0,0.4-0.2,0.4-0.5v-2.7c0-0.3-0.1-0.5-0.4-0.5H340V84.1z"/>
		</g>
		<g>
			<path class="st0" d="M349.5,81.9v2.2h1.5v1h-1.5v3.3c0,0.3,0.1,0.5,0.4,0.5c0.5,0,0.6-0.3,0.6-0.9V87h1v1.1c0,1.2-0.6,1.8-2,1.8
				c-1.2,0-1.9-0.6-1.9-1.8v-3h-0.8v-1c1.2,0,1.5-1.2,1.6-2.2H349.5z"/>
		</g>
		<g>
			<path class="st0" d="M356.8,86.4l3.8-3.9h1.9v4.1h1.2v1h-1.2v0.6c0,0.3,0.2,0.6,0.5,0.6h0.6v1H359v-1h0.8c0.4,0,0.5-0.2,0.5-0.6
				v-0.6h-3.6V86.4z M360.3,86.5v-2.3l-2.2,2.3H360.3z"/>
		</g>
	</g>
	<g class="st1">
		<path class="st0" d="M342.3,269.9v-2.5c3.1,0,5.7-2.5,5.7-5.7s-2.5-5.7-5.7-5.7v-2.5c4.5,0,8.2,3.7,8.2,8.2
			C350.5,266.2,346.8,269.9,342.3,269.9z"/>
	</g>
	<g class="st1">
		<path class="st0" d="M342.3,353.1v-2.5c3.1,0,5.7-2.5,5.7-5.7s-2.5-5.7-5.7-5.7v-2.5c4.5,0,8.2,3.7,8.2,8.2
			C350.5,349.4,346.8,353.1,342.3,353.1z"/>
	</g>
	<g class="st1">
		<path class="st0" d="M108,353.1c-4.5,0-8.2-3.7-8.2-8.2c0-4.5,3.7-8.2,8.2-8.2v2.5c-3.1,0-5.7,2.5-5.7,5.7s2.5,5.7,5.7,5.7V353.1z
			"/>
	</g>
	<g class="st1">
		<path class="st0" d="M127.1,283.8v-2.5c3.1,0,5.7-2.5,5.7-5.7s-2.5-5.7-5.7-5.7v-2.5c4.5,0,8.2,3.7,8.2,8.2
			S131.6,283.8,127.1,283.8z"/>
	</g>
	<g class="st1">
		<path class="st0" d="M158,422.3c-4.5,0-8.2-3.7-8.2-8.2c0-4.5,3.7-8.2,8.2-8.2v2.5c-3.1,0-5.7,2.5-5.7,5.7s2.5,5.7,5.7,5.7V422.3z
			"/>
	</g>
	<g class="st1">
		<path class="st0" d="M244,408.5V406c3.1,0,5.7-2.5,5.7-5.7s-2.5-5.7-5.7-5.7v-2.5c4.5,0,8.2,3.7,8.2,8.2
			C252.2,404.8,248.5,408.5,244,408.5z"/>
	</g>
	<g class="st1">
		<path class="st0" d="M277.2,214.5V212c3.1,0,5.7-2.5,5.7-5.7s-2.5-5.7-5.7-5.7v-2.5c4.5,0,8.2,3.7,8.2,8.2
			C285.4,210.9,281.7,214.5,277.2,214.5z"/>
	</g>
	<g class="st1">
		<path class="st0" d="M273.9,450c-4.5,0-8.2-3.7-8.2-8.2c0-4.5,3.7-8.2,8.2-8.2v2.5c-3.1,0-5.7,2.5-5.7,5.7s2.5,5.7,5.7,5.7V450z"
			/>
	</g>
	<g class="st1">
		<path class="st0" d="M302,186.8v-2.5c3.1,0,5.7-2.5,5.7-5.7s-2.5-5.7-5.7-5.7v-2.5c4.5,0,8.2,3.7,8.2,8.2
			C310.2,183.1,306.5,186.8,302,186.8z"/>
	</g>
	<g class="st1">
		<path class="st0" d="M258.1,200.7c-4.5,0-8.2-3.7-8.2-8.2c0-4.5,3.7-8.2,8.2-8.2v2.5c-3.1,0-5.7,2.5-5.7,5.7s2.5,5.7,5.7,5.7
			V200.7z"/>
	</g>
	<g class="st1">
		<path class="st0" d="M292.9,436.2v-2.5c3.1,0,5.7-2.5,5.7-5.7s-2.5-5.7-5.7-5.7v-2.5c4.5,0,8.2,3.7,8.2,8.2
			C301,432.5,297.4,436.2,292.9,436.2z"/>
	</g>
	<g class="st1">
		<path class="st0" d="M245.9,366.9c-4.5,0-8.2-3.7-8.2-8.2s3.7-8.2,8.2-8.2v2.5c-3.1,0-5.7,2.5-5.7,5.7s2.5,5.7,5.7,5.7V366.9z"/>
	</g>
	<g class="st1">
		<path class="st0" d="M108,394.6c-27.4,0-49.7-22.3-49.7-49.7c0-27.4,22.3-49.7,49.7-49.7v2.5c-26,0-47.2,21.2-47.2,47.2
			c0,26,21.2,47.2,47.2,47.2V394.6z"/>
	</g>
	<g class="st1">
		<path class="st0" d="M342.3,366.9v-2.5c10.8,0,19.5-8.8,19.5-19.5c0-10.8-8.8-19.5-19.5-19.5v-2.5c12.2,0,22,9.9,22,22
			C364.4,357,354.5,366.9,342.3,366.9z"/>
	</g>
	<g class="st1">
		<path class="st0" d="M342.3,283.8v-2.5c10.8,0,19.5-8.8,19.5-19.5c0-10.8-8.8-19.5-19.5-19.5v-2.5c12.2,0,22,9.9,22,22
			C364.4,273.9,354.5,283.8,342.3,283.8z"/>
	</g>
	<g class="st1">
		<path class="st0" d="M94.3,269.9c-12.2,0-22-9.9-22-22c0-12.2,9.9-22,22-22v2.5c-10.8,0-19.5,8.8-19.5,19.5
			c0,10.8,8.8,19.5,19.5,19.5V269.9z"/>
	</g>
	<g class="st1">
		<path class="st0" d="M108,366.9c-12.2,0-22-9.9-22-22c0-12.2,9.9-22,22-22v2.5c-10.8,0-19.5,8.8-19.5,19.5
			c0,10.8,8.8,19.5,19.5,19.5V366.9z"/>
	</g>
	<g class="st1">
		<path class="st0" d="M342.4,380.8v-2.5c18.4,0,33.4-15,33.4-33.4s-15-33.4-33.4-33.4V309c19.8,0,35.9,16.1,35.9,35.9
			S362.2,380.8,342.4,380.8z"/>
	</g>
	<g class="st1">
		<path class="st0" d="M108,380.8c-19.8,0-35.9-16.1-35.9-35.9S88.2,309,108,309v2.5c-18.4,0-33.4,15-33.4,33.4s15,33.4,33.4,33.4
			V380.8z"/>
	</g>
	<g class="st1">
		<path class="st0" d="M94.2,283.8c-19.8,0-35.9-16.1-35.9-35.9S74.4,212,94.2,212v2.5c-18.4,0-33.4,15-33.4,33.4s15,33.4,33.4,33.4
			V283.8z"/>
	</g>
	<g class="st1">
		<path class="st0" d="M342.4,297.7v-2.5c18.4,0,33.4-15,33.4-33.4s-15-33.4-33.4-33.4v-2.5c19.8,0,35.9,16.1,35.9,35.9
			S362.2,297.7,342.4,297.7z"/>
	</g>
</g>
<g>
	<rect x="292.9" y="253.5" class="st0" width="49.5" height="2.5"/>
</g>
<g>
	<rect x="292.9" y="239.7" class="st0" width="49.5" height="2.5"/>
</g>
<g>
	<rect x="94.3" y="225.9" class="st0" width="248.1" height="2.5"/>
</g>
<g>
	<rect x="94.3" y="212" class="st0" width="183" height="2.5"/>
</g>
<g>
	<rect x="305" y="336.7" class="st0" width="37.3" height="2.5"/>
</g>
<g>
	<rect x="108" y="336.7" class="st0" width="37.9" height="2.5"/>
</g>
<g>
	<rect x="108" y="322.9" class="st0" width="37.9" height="2.5"/>
</g>
<g>
	<rect x="108" y="309" class="st0" width="37.9" height="2.5"/>
</g>
<g>
	<rect x="94.2" y="267.4" class="st0" width="32.9" height="2.5"/>
</g>
<g>
	<rect x="94.2" y="281.3" class="st0" width="32.9" height="2.5"/>
</g>
<g>
	<rect x="108" y="295.2" class="st0" width="112.1" height="2.5"/>
</g>
<g>
	<rect x="108" y="350.6" class="st0" width="37.9" height="2.5"/>
</g>
<g>
	<rect x="108" y="364.4" class="st0" width="37.9" height="2.5"/>
</g>
<g>
	<rect x="305" y="322.9" class="st0" width="37.3" height="2.5"/>
</g>
<g>
	<rect x="305" y="309" class="st0" width="37.3" height="2.5"/>
</g>
<g>
	<rect x="305" y="295.2" class="st0" width="37.3" height="2.5"/>
</g>
<g>
	<rect x="108" y="378.3" class="st0" width="234.3" height="2.5"/>
</g>
<g>
	<rect x="108" y="392.1" class="st0" width="136" height="2.5"/>
</g>
<g>
	<rect x="157" y="406" class="st0" width="87.1" height="2.5"/>
</g>
<g>
	<rect x="157" y="419.8" class="st0" width="135.9" height="2.5"/>
</g>
<g>
	<rect x="292.9" y="267.4" class="st0" width="49.5" height="2.5"/>
</g>
<g>
	<rect x="305" y="281.3" class="st0" width="37.3" height="2.5"/>
</g>
<g>
	<rect x="258.1" y="198.2" class="st0" width="19.1" height="2.5"/>
</g>
<g>
	<rect x="273.9" y="433.7" class="st0" width="19.1" height="2.5"/>
</g>
<g>
	<rect x="258.1" y="184.3" class="st0" width="43.9" height="2.5"/>
</g>
<g>
	<rect x="245.9" y="350.6" class="st0" width="96.4" height="2.5"/>
</g>
<g>
	<rect x="205.8" y="170.5" class="st0" width="96.4" height="2.5"/>
</g>
<g>
	<rect x="245.9" y="364.4" class="st0" width="96.4" height="2.5"/>
</g>
<g>
	<path class="st0" d="M169.6,267.9h-9.3v0v13.9h-2.5v-34h11.8c6.5,0,11.3,3.2,11.3,10C181,264.8,176.2,267.9,169.6,267.9z
		 M169.6,250.3h-9.3v15.3h9.3c5,0,8.7-2.3,8.7-7.6C178.4,252.6,174.6,250.3,169.6,250.3z"/>
	<path class="st0" d="M207,266.8l6.9,15.1h-2.7l-6.7-14.5h-11.9v14.5h-2.5v-34h12.4c7.4,0,11.5,3.9,11.5,9.8
		C214,262.1,211.3,265.6,207,266.8z M202.6,250.2h-9.9v14.9h9.9c5.6,0,8.9-2.6,8.9-7.4C211.4,252.8,208.2,250.2,202.6,250.2z"/>
	<path class="st0" d="M244.2,279.1c-2.1,2-5,3.5-8.7,3.5s-6.6-1.4-8.7-3.5c-3.8-3.7-4.3-9.3-4.3-14.2s0.4-10.5,4.3-14.2
		c2.1-2,5-3.5,8.7-3.5s6.6,1.4,8.7,3.5c3.8,3.7,4.3,9.3,4.3,14.2S248,275.4,244.2,279.1z M242.4,252.3c-1.8-1.7-4.3-2.6-6.9-2.6
		c-2.6,0-5.1,0.9-6.9,2.6c-3.4,3.2-3.5,8.5-3.5,12.5s0.1,9.4,3.5,12.6c1.8,1.7,4.3,2.6,6.9,2.6c2.6,0,5.1-0.9,6.9-2.6
		c3.4-3.2,3.5-8.5,3.5-12.6S245.7,255.5,242.4,252.3z"/>
</g>
<g>
	<path class="st0" d="M181.4,353.1l-19.7-30.1v30.1h-2.5v-34h2.8l19.8,30.1V319h2.4v34H181.4z"/>
	<path class="st0" d="M216.5,350.2c-2.1,2-5,3.5-8.7,3.5s-6.6-1.4-8.7-3.5c-3.8-3.7-4.3-9.3-4.3-14.2s0.4-10.5,4.3-14.2
		c2.1-2,5-3.5,8.7-3.5s6.6,1.4,8.7,3.5c3.8,3.7,4.3,9.3,4.3,14.2S220.4,346.6,216.5,350.2z M214.7,323.5c-1.8-1.7-4.3-2.6-6.9-2.6
		c-2.6,0-5.1,0.9-6.9,2.6c-3.4,3.2-3.5,8.5-3.5,12.5s0.1,9.4,3.5,12.6c1.8,1.7,4.3,2.6,6.9,2.6c2.6,0,5.1-0.9,6.9-2.6
		c3.4-3.2,3.5-8.5,3.5-12.6S218.1,326.7,214.7,323.5z"/>
</g>
<g>
	<path class="st0" d="M264.3,269.4v-2.2h13.6v2.2H264.3z"/>
</g>
<g>
	<path class="st0" d="M244.1,330c-8.2,0-12-5.6-12-13.1v-21.6h2.5V317c0,5.9,2.9,10.7,9.6,10.7s9.6-4.8,9.6-10.7v-21.6h2.5v21.6
		C256.2,324.4,252.2,330,244.1,330z"/>
	<path class="st0" d="M290.3,329.4l-19.7-30.1v30.1H268v-34h2.8l19.8,30.1v-30.1h2.4v34H290.3z"/>
</g>
<g>
	<defs>
		<rect id="SVGID_17_" x="58.3" y="80.4" width="348.4" height="369.6"/>
	</defs>
	<clipPath id="SVGID_4_">
		<use xlink:href="#SVGID_17_"  style="overflow:visible;"/>
	</clipPath>
	<g class="st2">
		<path class="st0" d="M94.3,256c-4.5,0-8.2-3.7-8.2-8.2c0-4.5,3.7-8.2,8.2-8.2v2.5c-3.1,0-5.7,2.5-5.7,5.7s2.5,5.7,5.7,5.7V256z"/>
	</g>
</g>
<g>
	<rect x="94.2" y="239.7" class="st0" width="51.7" height="2.5"/>
</g>
<g>
	<rect x="94.2" y="253.6" class="st0" width="51.7" height="2.5"/>
</g>
</svg>
