<?xml version="1.0" encoding="utf-8"?>
<!-- Generator: Adobe Illustrator 20.1.0, SVG Export Plug-In . SVG Version: 6.00 Build 0)  -->
<svg version="1.1" id="Layer_1" xmlns="http://www.w3.org/2000/svg" xmlns:xlink="http://www.w3.org/1999/xlink" x="0px" y="0px"
	 viewBox="0 0 432 648" style="enable-background:new 0 0 432 648;" xml:space="preserve">
<style type="text/css">
	.st0{fill:#FFFFFF;}
	.st1{clip-path:url(#SVGID_2_);}
	.st2{clip-path:url(#SVGID_4_);}
	.st3{clip-path:url(#SVGID_6_);}
	.st4{clip-path:url(#SVGID_8_);}
	.st5{clip-path:url(#SVGID_10_);}
	.st6{clip-path:url(#SVGID_12_);}
	.st7{clip-path:url(#SVGID_14_);}
	.st8{clip-path:url(#SVGID_16_);}
	.st9{clip-path:url(#SVGID_18_);}
	.st10{clip-path:url(#SVGID_20_);}
	.st11{clip-path:url(#SVGID_22_);}
	.st12{clip-path:url(#SVGID_24_);}
	.st13{fill:none;stroke:#FFFFFF;stroke-width:2.5;}
	.st14{clip-path:url(#SVGID_26_);fill:none;stroke:#FFFFFF;stroke-width:2.5;}
	.st15{clip-path:url(#SVGID_28_);fill:none;stroke:#FFFFFF;stroke-width:2.5;}
	.st16{clip-path:url(#SVGID_30_);fill:none;stroke:#FFFFFF;stroke-width:2.5;}
	.st17{clip-path:url(#SVGID_32_);fill:none;stroke:#FFFFFF;stroke-width:2.5;}
	.st18{clip-path:url(#SVGID_34_);fill:none;stroke:#FFFFFF;stroke-width:2.5;}
	.st19{clip-path:url(#SVGID_36_);fill:none;stroke:#FFFFFF;stroke-width:2.5;}
	.st20{clip-path:url(#SVGID_38_);fill:none;stroke:#FFFFFF;stroke-width:2.5;}
	.st21{clip-path:url(#SVGID_40_);}
	.st22{clip-path:url(#SVGID_40_);fill:none;stroke:#FFFFFF;stroke-width:2.5;}
	.st23{clip-path:url(#SVGID_42_);fill:none;stroke:#FFFFFF;stroke-width:2.5;}
	.st24{clip-path:url(#SVGID_44_);fill:none;stroke:#FFFFFF;stroke-width:2.5;}
	.st25{clip-path:url(#SVGID_46_);fill:none;stroke:#FFFFFF;stroke-width:2.5;}
	.st26{clip-path:url(#SVGID_48_);fill:none;stroke:#FFFFFF;stroke-width:2.5;}
</style>
<g>
	<g>
		<path class="st0" d="M333.6,83.1c0-0.3-0.2-0.5-0.5-0.5h-0.7v-1.1h5c2,0,3.1,0.6,3.1,2.3s-1.2,2.3-3.4,2.3h-1.3V88
			c0,0.3,0.2,0.5,0.5,0.5h0.8v1.1h-4.7v-1.1h0.7c0.3,0,0.5-0.2,0.5-0.5V83.1z M335.9,85h1c0.8,0,1.4-0.5,1.4-1.2
			c0-0.7-0.5-1.2-1.2-1.2h-1.2V85z"/>
		<path class="st0" d="M348.4,87.5v0.7c0,1.2-0.5,1.6-1.8,1.6c-0.6,0-1.1-0.3-1.3-0.9c-0.5,0.6-1.1,0.9-1.8,0.9
			c-1.1,0-1.8-0.4-1.8-1.7c0-2.3,3.6-0.9,3.6-2.5c0-0.8-0.5-1.1-1.2-1.1c-0.3,0-0.7,0-0.9,0.2v0c0.4,0,0.8,0.2,0.8,0.7
			c0,0.5-0.5,0.8-0.9,0.8c-0.6,0-1-0.3-1-0.9c0-1.3,1.8-1.5,2.8-1.5c1.6,0,2.5,0.4,2.5,2.1v2.2c0,0.3,0,0.5,0.2,0.5
			c0.3,0,0.4-0.2,0.4-0.8v-0.3H348.4z M345.1,86.8c-0.6,0.3-1.5,0.4-1.5,1.2c0,0.5,0.3,0.7,0.7,0.7c0.7,0,0.9-0.5,0.9-1V86.8z"/>
		<path class="st0" d="M349.4,83.9h2.8v1h0c0.2-0.6,0.7-1.1,1.4-1.1c0.7,0,1.4,0.6,1.4,1.4c0,0.5-0.4,1.1-1,1.1c-0.5,0-1-0.2-1-0.8
			c0-0.4,0.2-0.7,0.6-0.7c-0.1-0.1-0.2-0.1-0.4-0.1c-0.6,0-1,0.8-1,1.4V88c0,0.3,0.1,0.5,0.4,0.5h0.5v1h-3.8v-1h0.5
			c0.3,0,0.4-0.2,0.4-0.5v-2.7c0-0.3-0.1-0.5-0.4-0.5h-0.5V83.9z"/>
		<path class="st0" d="M358.9,81.7v2.2h1.5v1h-1.5v3.3c0,0.3,0.1,0.5,0.4,0.5c0.5,0,0.6-0.3,0.6-0.9v-0.9h1v1.1c0,1.2-0.6,1.8-2,1.8
			c-1.2,0-1.9-0.6-1.9-1.8v-3h-0.8v-1c1.2,0,1.5-1.2,1.6-2.2H358.9z"/>
		<path class="st0" d="M370.8,82.3v5.7c0,0.3,0.2,0.6,0.5,0.6h0.7v1h-4.7v-1h0.8c0.4,0,0.5-0.2,0.5-0.6v-3.7h-1.3v-1h0.3
			c0.7,0,1.2-0.2,1.5-1H370.8z"/>
	</g>
	<g>
		<path class="st0" d="M101.8,285.3c-2.3,2.3-5.7,3.3-9.6,3.3c-3.9,0-7.2-1.2-9.5-3.6c-1.7-1.8-2.8-4.2-3.1-6.8h2.6
			c0.2,2,1.2,3.9,2.5,5.2c1.8,1.9,4.7,2.8,7.5,2.8c2.9,0,5.9-0.8,7.7-2.5c1.2-1.2,2-2.7,2-4.9c0-3.3-2.5-6.1-6.6-6.6l-6.3-0.8
			c-4.8-0.6-8.4-3.4-8.4-8.6c0-2.8,1.2-4.8,3-6.4c2.1-1.9,5.2-3,8.4-3c3.6,0,7.3,1.5,9.2,3.7c1.4,1.7,2.4,3.5,2.6,5.9h-2.5
			c-0.2-1.7-0.8-3-1.9-4.3c-1.5-1.8-4.3-2.9-7.4-2.9c-2.4,0-4.8,0.6-6.5,2.1c-1.3,1.2-2.3,2.7-2.3,4.9c0,4,2.9,5.6,6,6l6.4,0.8
			c5.3,0.7,8.9,4.5,8.9,9.3C104.5,281.7,103.4,283.7,101.8,285.3z"/>
	</g>
	<g>
		<path class="st0" d="M138.8,243.7l-3.5-9h-16.5l-3.4,9H113l12.9-34h2.4l13.1,34H138.8z M127.1,213.1l-7.2,19.2h14.6L127.1,213.1z"
			/>
		<path class="st0" d="M172.4,243.7l-19.7-30.1v30.1h-2.5v-34h2.8l19.8,30.1v-30.1h2.4v34H172.4z"/>
		<path class="st0" d="M198.7,244.3c-3.3,0-6.6-1.3-9-3.7c-3.6-3.7-4-9.1-4-14s0.3-10.2,4-13.9c2.4-2.4,5.7-3.7,9-3.7
			c6.8,0,11.6,4.8,12.1,11h-2.6c-0.4-5-4.1-8.6-9.5-8.6c-3,0-5.3,1.1-7.2,2.9c-3.1,3.2-3.2,8.2-3.2,12.2c0,4.1,0.2,9.1,3.3,12.3
			c1.9,1.9,4.3,2.9,7.1,2.9c5.4,0,9.1-3.6,9.5-8.6h2.6C210.3,239.6,205.5,244.3,198.7,244.3z"/>
	</g>
	<g>
		<path class="st0" d="M225.3,176.1v31.6h-2.5v-31.6H212v-2.4h24.1v2.4H225.3z"/>
		<path class="st0" d="M257.8,208.3c-8.2,0-12-5.6-12-13.1v-21.6h2.5v21.6c0,5.9,2.9,10.7,9.6,10.7s9.6-4.8,9.6-10.7v-21.6h2.5v21.6
			C269.9,202.7,265.9,208.3,257.8,208.3z"/>
	</g>
	<g>
		<path class="st0" d="M308.5,315.7l-3.5-9h-16.5l-3.4,9h-2.6l12.9-34h2.4l13.1,34H308.5z M296.7,285.1l-7.2,19.2h14.6L296.7,285.1z
			"/>
		<path class="st0" d="M337.6,300.5l6.9,15.1h-2.7l-6.7-14.5h-11.9v14.5h-2.5v-34h12.4c7.4,0,11.5,3.9,11.5,9.8
			C344.6,295.9,341.9,299.4,337.6,300.5z M333.2,284h-9.9v14.9h9.9c5.6,0,8.9-2.6,8.9-7.4C342.1,286.6,338.8,284,333.2,284z"/>
	</g>
	<g>
		<path class="st0" d="M351.8,350.2v13.5h-2.4v-13.5l-11.8-20.5h2.7l10.4,18.1l10.4-18.1h2.5L351.8,350.2z"/>
	</g>
	<g>
		<rect x="293.8" y="327.7" class="st0" width="2.5" height="168"/>
	</g>
	<g>
		<rect x="336.2" y="375.7" class="st0" width="2.5" height="168"/>
	</g>
	<g>
		<rect x="321.5" y="495.7" class="st0" width="2.5" height="48"/>
	</g>
	<g>
		<rect x="279.9" y="327.7" class="st0" width="2.5" height="168"/>
	</g>
	<g>
		<rect x="72" y="303.9" class="st0" width="2.5" height="167.8"/>
	</g>
	<g>
		<defs>
			<rect id="SVGID_1_" x="44.3" y="65.7" width="380.8" height="514"/>
		</defs>
		<clipPath id="SVGID_2_">
			<use xlink:href="#SVGID_1_"  style="overflow:visible;"/>
		</clipPath>
		<g class="st1">
			<rect x="44.3" y="135.7" class="st0" width="2.5" height="168"/>
		</g>
	</g>
	<g>
		<rect x="377.5" y="339.7" class="st0" width="2.5" height="204"/>
	</g>
	<g>
		<rect x="391.6" y="315.7" class="st0" width="2.5" height="228"/>
	</g>
	<g>
		<rect x="113.6" y="255.9" class="st0" width="2.5" height="215.8"/>
	</g>
	<g>
		<rect x="252.2" y="219.7" class="st0" width="2.5" height="168"/>
	</g>
	<g>
		<rect x="238.3" y="219.7" class="st0" width="2.5" height="168"/>
	</g>
	<g>
		<rect x="155.2" y="255.9" class="st0" width="2.5" height="167.8"/>
	</g>
	<g>
		<rect x="210.6" y="255.9" class="st0" width="2.5" height="167.8"/>
	</g>
	<g>
		<rect x="307.6" y="327.7" class="st0" width="2.5" height="168"/>
	</g>
	<g>
		<rect x="350.1" y="375.7" class="st0" width="2.5" height="168"/>
	</g>
	<g>
		<rect x="321.5" y="327.7" class="st0" width="2.5" height="168"/>
	</g>
	<g>
		<rect x="364.3" y="375.7" class="st0" width="2.5" height="168"/>
	</g>
	<g>
		<rect x="85.9" y="303.9" class="st0" width="2.5" height="167.8"/>
	</g>
	<g>
		<rect x="85.9" y="159.7" class="st0" width="2.5" height="84"/>
	</g>
	<g>
		<rect x="113.6" y="159.7" class="st0" width="2.5" height="36"/>
	</g>
	<g>
		<rect x="141.5" y="135.7" class="st0" width="2.5" height="60"/>
	</g>
	<g>
		<rect x="72.6" y="159.7" class="st0" width="2.5" height="84"/>
	</g>
	<g>
		<rect x="99.8" y="159.7" class="st0" width="2.5" height="60"/>
	</g>
	<g>
		<rect x="127.6" y="255.9" class="st0" width="2.5" height="167.5"/>
	</g>
	<g>
		<rect x="182.9" y="255.9" class="st0" width="2.5" height="167.8"/>
	</g>
	<g>
		<rect x="99.8" y="303.9" class="st0" width="2.5" height="167.8"/>
	</g>
	<g>
		<rect x="155.2" y="111.7" class="st0" width="2.5" height="84"/>
	</g>
	<g>
		<rect x="168.5" y="111.7" class="st0" width="2.5" height="84"/>
	</g>
	<g>
		<rect x="182.3" y="111.7" class="st0" width="2.5" height="84"/>
	</g>
	<g>
		<rect x="196.8" y="111.7" class="st0" width="2.5" height="84"/>
	</g>
	<g>
		<rect x="210.6" y="87.7" class="st0" width="2.5" height="72"/>
	</g>
	<g>
		<rect x="224.5" y="87.9" class="st0" width="2.5" height="71.8"/>
	</g>
	<g>
		<rect x="238.3" y="87.9" class="st0" width="2.5" height="71.8"/>
	</g>
	<g>
		<rect x="252.2" y="87.7" class="st0" width="2.5" height="72"/>
	</g>
	<g>
		<rect x="266.7" y="99.7" class="st0" width="2.5" height="60"/>
	</g>
	<g>
		<rect x="280.5" y="99.7" class="st0" width="2.5" height="168"/>
	</g>
	<g>
		<rect x="293.8" y="171.7" class="st0" width="2.5" height="96"/>
	</g>
	<g>
		<rect x="307.6" y="171.7" class="st0" width="2.5" height="96"/>
	</g>
	<g>
		<rect x="321.5" y="171.7" class="st0" width="2.5" height="96"/>
	</g>
	<g>
		<rect x="335.3" y="171.7" class="st0" width="2.5" height="96"/>
	</g>
	<g>
		<rect x="350.1" y="207.7" class="st0" width="2.5" height="60"/>
	</g>
	<g>
		<rect x="363.9" y="207.7" class="st0" width="2.5" height="108"/>
	</g>
	<g>
		<rect x="141.1" y="255.9" class="st0" width="2.5" height="167.8"/>
	</g>
	<g>
		<rect x="196.8" y="255.9" class="st0" width="2.5" height="167.5"/>
	</g>
	<g>
		<rect x="266" y="219.7" class="st0" width="2.5" height="168"/>
	</g>
	<g>
		<rect x="169" y="255.9" class="st0" width="2.5" height="167.8"/>
	</g>
	<g>
		<rect x="224.5" y="219.7" class="st0" width="2.5" height="168"/>
	</g>
	<g>
		<defs>
			<rect id="SVGID_3_" x="44.3" y="65.7" width="380.8" height="514"/>
		</defs>
		<clipPath id="SVGID_4_">
			<use xlink:href="#SVGID_3_"  style="overflow:visible;"/>
		</clipPath>
		<g class="st2">
			<path class="st0" d="M94.1,479.9c-4.5,0-8.2-3.7-8.2-8.2h2.5c0,3.1,2.5,5.7,5.7,5.7s5.7-2.5,5.7-5.7h2.5
				C102.3,476.2,98.6,479.9,94.1,479.9z"/>
		</g>
		<g class="st2">
			<path class="st0" d="M372.2,323.9c-4.5,0-8.2-3.7-8.2-8.2h2.5c0,3.1,2.5,5.7,5.7,5.7s5.7-2.5,5.7-5.7h2.5
				C380.3,320.2,376.7,323.9,372.2,323.9z"/>
		</g>
		<g class="st2">
			<path class="st0" d="M358.4,551.9c-4.6,0-8.4-3.7-8.4-8.2h2.5c0,3.1,2.6,5.7,5.9,5.7s5.9-2.5,5.9-5.7h2.5
				C366.8,548.2,363,551.9,358.4,551.9z"/>
		</g>
		<g class="st2">
			<path class="st0" d="M394.1,315.7h-2.5c0-3.1-2.5-5.7-5.7-5.7s-5.7,2.5-5.7,5.7h-2.5c0-4.5,3.7-8.2,8.2-8.2
				C390.5,307.5,394.1,311.2,394.1,315.7z"/>
		</g>
		<g class="st2">
			<path class="st0" d="M163.4,431.9c-4.5,0-8.2-3.7-8.2-8.2h2.5c0,3.1,2.5,5.7,5.7,5.7s5.7-2.5,5.7-5.7h2.5
				C171.5,428.2,167.9,431.9,163.4,431.9z"/>
		</g>
		<g class="st2">
			<path class="st0" d="M246.5,395.8c-4.5,0-8.2-3.7-8.2-8.2h2.5c0,3.1,2.5,5.7,5.7,5.7s5.7-2.5,5.7-5.7h2.5
				C254.7,392.2,251,395.8,246.5,395.8z"/>
		</g>
		<g class="st2">
			<path class="st0" d="M102.3,159.7h-2.5c0-3.1-2.5-5.7-5.7-5.7s-5.7,2.5-5.7,5.7h-2.5c0-4.5,3.7-8.2,8.2-8.2
				S102.3,155.2,102.3,159.7z"/>
		</g>
		<g class="st2">
			<path class="st0" d="M324,171.7h-2.5c0-3.1-2.5-5.7-5.7-5.7s-5.7,2.5-5.7,5.7h-2.5c0-4.5,3.7-8.2,8.2-8.2
				C320.3,163.5,324,167.2,324,171.7z"/>
		</g>
		<g class="st2">
			<path class="st0" d="M366.4,207.7h-2.5c0-3.1-2.5-5.7-5.7-5.7s-5.7,2.5-5.7,5.7h-2.5c0-4.5,3.7-8.2,8.2-8.2
				C362.8,199.5,366.4,203.2,366.4,207.7z"/>
		</g>
		<g class="st2">
			<path class="st0" d="M184.8,111.7h-2.5c0-3.1-2.5-5.7-5.6-5.7s-5.6,2.5-5.6,5.7h-2.5c0-4.5,3.6-8.2,8.1-8.2
				S184.8,107.2,184.8,111.7z"/>
		</g>
		<g class="st2">
			<path class="st0" d="M240.8,87.9h-2.5c0-3.1-2.5-5.7-5.7-5.7s-5.7,2.5-5.7,5.7h-2.5c0-4.5,3.7-8.2,8.2-8.2
				C237.2,79.7,240.8,83.4,240.8,87.9z"/>
		</g>
		<g class="st2">
			<path class="st0" d="M283,99.7h-2.5c0-3.1-2.5-5.7-5.7-5.7s-5.7,2.5-5.7,5.7h-2.5c0-4.5,3.7-8.2,8.2-8.2
				C279.3,91.5,283,95.2,283,99.7z"/>
		</g>
		<g class="st2">
			<path class="st0" d="M74.5,303.9H72c0-3.1-2.5-5.7-5.7-5.7s-5.7,2.5-5.7,5.7h-2.5c0-4.5,3.7-8.2,8.2-8.2
				C70.9,295.7,74.5,299.4,74.5,303.9z"/>
		</g>
		<g class="st2">
			<path class="st0" d="M52.5,311.9c-4.5,0-8.2-3.7-8.2-8.2h2.5c0,3.1,2.5,5.7,5.7,5.7s5.7-2.5,5.7-5.7h2.5
				C60.7,308.2,57,311.9,52.5,311.9z"/>
		</g>
		<g class="st2">
			<path class="st0" d="M301.9,503.9c-4.5,0-8.2-3.7-8.2-8.2h2.5c0,3.1,2.5,5.7,5.7,5.7s5.7-2.5,5.7-5.7h2.5
				C310.1,500.3,306.5,503.9,301.9,503.9z"/>
		</g>
		<g class="st2">
			<path class="st0" d="M94.1,493.8c-12.2,0-22-9.9-22-22h2.5c0,10.8,8.8,19.5,19.5,19.5c10.8,0,19.5-8.8,19.5-19.5h2.5
				C116.1,483.9,106.2,493.8,94.1,493.8z"/>
		</g>
		<g class="st2">
			<path class="st0" d="M116.1,159.7h-2.5c0-10.8-8.6-19.5-19.2-19.5s-19.2,8.8-19.2,19.5h-2.5c0-12.2,9.8-22,21.7-22
				S116.1,147.6,116.1,159.7z"/>
		</g>
		<g class="st2">
			<path class="st0" d="M199.3,111.7h-2.5c0-10.8-8.8-19.5-19.5-19.5c-10.8,0-19.5,8.8-19.5,19.5h-2.5c0-12.2,9.9-22,22-22
				C189.4,89.7,199.3,99.6,199.3,111.7z"/>
		</g>
		<g class="st2">
			<path class="st0" d="M254.7,87.7h-2.5c0-10.8-8.8-19.5-19.5-19.5c-10.8,0-19.5,8.8-19.5,19.5h-2.5c0-12.2,9.9-22,22-22
				C244.8,65.7,254.7,75.6,254.7,87.7z"/>
		</g>
		<g class="st2">
			<path class="st0" d="M337.8,171.7h-2.5c0-10.8-8.8-19.5-19.5-19.5c-10.8,0-19.5,8.8-19.5,19.5h-2.5c0-12.2,9.9-22,22-22
				C328,149.7,337.8,159.6,337.8,171.7z"/>
		</g>
		<g class="st2">
			<path class="st0" d="M246.5,409.7c-12.2,0-22-9.9-22-22h2.5c0,10.8,8.8,19.5,19.5,19.5s19.5-8.8,19.5-19.5h2.5
				C268.5,399.8,258.7,409.7,246.5,409.7z"/>
		</g>
		<g class="st2">
			<path class="st0" d="M301.9,517.8c-12.2,0-22-9.9-22-22h2.5c0,10.8,8.8,19.5,19.5,19.5c10.8,0,19.5-8.8,19.5-19.5h2.5
				C324,507.9,314.1,517.8,301.9,517.8z"/>
		</g>
		<g class="st2">
			<path class="st0" d="M358.1,565.6c-12.1,0-21.9-9.8-21.9-21.9h2.5c0,10.7,8.7,19.4,19.4,19.4s19.4-8.7,19.4-19.4h2.5
				C380,555.8,370.2,565.6,358.1,565.6z"/>
		</g>
		<g class="st2">
			<path class="st0" d="M163.4,459.4c-19.8,0-35.8-16.1-35.8-35.9h2.5c0,18.4,15,33.4,33.3,33.4s33.3-15,33.3-33.4h2.5
				C199.3,443.3,183.2,459.4,163.4,459.4z"/>
		</g>
		<g class="st2">
			<path class="st0" d="M246.5,423.7c-19.8,0-35.9-16.1-35.9-36h2.5c0,18.5,15,33.5,33.4,33.5c18.4,0,33.4-15,33.4-33.5h2.5
				C282.4,407.5,266.3,423.7,246.5,423.7z"/>
		</g>
		<g class="st2">
			<path class="st0" d="M357.8,579.7c-20,0-36.3-16.1-36.3-36h2.5c0,18.5,15.2,33.5,33.8,33.5s33.8-15,33.8-33.5h2.5
				C394.1,563.6,377.8,579.7,357.8,579.7z"/>
		</g>
		<g class="st2">
			<path class="st0" d="M163.4,473.6c-27.4,0-49.7-22.4-49.7-49.9h2.5c0,26.1,21.2,47.4,47.2,47.4c26,0,47.2-21.3,47.2-47.4h2.5
				C213.1,451.2,190.8,473.6,163.4,473.6z"/>
		</g>
		<g class="st2">
			<path class="st0" d="M144,135.7h-2.5c0-26.1-21.2-47.4-47.3-47.4s-47.3,21.3-47.3,47.4h-2.5c0-27.5,22.3-49.9,49.8-49.9
				S144,108.2,144,135.7z"/>
		</g>
		<g class="st2">
			<path class="st0" d="M163.3,445.8c-12.2,0-22.1-9.9-22.1-22.1h2.5c0,10.8,8.8,19.6,19.6,19.6s19.6-8.8,19.6-19.6h2.5
				C185.4,435.9,175.5,445.8,163.3,445.8z"/>
		</g>
	</g>
</g>
</svg>
