<?xml version="1.0" encoding="utf-8"?>
<!-- Generator: Adobe Illustrator 20.1.0, SVG Export Plug-In . SVG Version: 6.00 Build 0)  -->
<svg version="1.1" id="Layer_1" xmlns="http://www.w3.org/2000/svg" xmlns:xlink="http://www.w3.org/1999/xlink" x="0px" y="0px"
	 viewBox="0 0 432 648" style="enable-background:new 0 0 432 648;" xml:space="preserve">
<style type="text/css">
	.st0{fill:#FFFFFF;}
	.st1{clip-path:url(#SVGID_2_);}
	.st2{clip-path:url(#SVGID_4_);}
	.st3{clip-path:url(#SVGID_6_);}
	.st4{clip-path:url(#SVGID_8_);}
	.st5{clip-path:url(#SVGID_10_);}
	.st6{clip-path:url(#SVGID_12_);}
	.st7{clip-path:url(#SVGID_14_);}
	.st8{clip-path:url(#SVGID_16_);}
	.st9{clip-path:url(#SVGID_18_);}
	.st10{clip-path:url(#SVGID_20_);}
	.st11{clip-path:url(#SVGID_22_);}
	.st12{clip-path:url(#SVGID_24_);}
	.st13{fill:none;stroke:#FFFFFF;stroke-width:2.5;}
	.st14{clip-path:url(#SVGID_26_);fill:none;stroke:#FFFFFF;stroke-width:2.5;}
	.st15{clip-path:url(#SVGID_28_);fill:none;stroke:#FFFFFF;stroke-width:2.5;}
	.st16{clip-path:url(#SVGID_30_);fill:none;stroke:#FFFFFF;stroke-width:2.5;}
	.st17{clip-path:url(#SVGID_32_);fill:none;stroke:#FFFFFF;stroke-width:2.5;}
	.st18{clip-path:url(#SVGID_34_);fill:none;stroke:#FFFFFF;stroke-width:2.5;}
	.st19{clip-path:url(#SVGID_36_);fill:none;stroke:#FFFFFF;stroke-width:2.5;}
	.st20{clip-path:url(#SVGID_38_);fill:none;stroke:#FFFFFF;stroke-width:2.5;}
	.st21{clip-path:url(#SVGID_40_);}
	.st22{clip-path:url(#SVGID_40_);fill:none;stroke:#FFFFFF;stroke-width:2.5;}
	.st23{clip-path:url(#SVGID_42_);fill:none;stroke:#FFFFFF;stroke-width:2.5;}
	.st24{clip-path:url(#SVGID_44_);fill:none;stroke:#FFFFFF;stroke-width:2.5;}
	.st25{clip-path:url(#SVGID_46_);fill:none;stroke:#FFFFFF;stroke-width:2.5;}
	.st26{clip-path:url(#SVGID_48_);fill:none;stroke:#FFFFFF;stroke-width:2.5;}
</style>
<g>
	<path class="st0" d="M324.8,83.1c0-0.3-0.2-0.5-0.5-0.5h-0.7v-1.1h5c2,0,3.1,0.6,3.1,2.3s-1.2,2.3-3.4,2.3H327V88
		c0,0.3,0.2,0.5,0.5,0.5h0.8v1.1h-4.7v-1.1h0.7c0.3,0,0.5-0.2,0.5-0.5V83.1z M327,85.1h1c0.8,0,1.4-0.5,1.4-1.2s-0.5-1.2-1.2-1.2
		H327V85.1z"/>
	<path class="st0" d="M339.5,87.5v0.7c0,1.2-0.5,1.6-1.8,1.6c-0.6,0-1.1-0.3-1.3-0.9c-0.5,0.6-1.1,0.9-1.8,0.9
		c-1.1,0-1.8-0.4-1.8-1.7c0-2.3,3.6-0.9,3.6-2.5c0-0.8-0.5-1.1-1.2-1.1c-0.3,0-0.7,0-0.9,0.2v0c0.4,0,0.8,0.2,0.8,0.7
		c0,0.5-0.5,0.8-0.9,0.8c-0.6,0-1-0.3-1-0.9c0-1.3,1.8-1.5,2.8-1.5c1.6,0,2.5,0.4,2.5,2.1v2.2c0,0.3,0,0.5,0.2,0.5
		c0.3,0,0.4-0.2,0.4-0.8v-0.3H339.5z M336.3,86.8c-0.6,0.3-1.5,0.4-1.5,1.2c0,0.5,0.3,0.7,0.7,0.7c0.7,0,0.9-0.5,0.9-1V86.8z"/>
	<path class="st0" d="M340.6,83.9h2.8v1h0c0.2-0.6,0.7-1.1,1.4-1.1c0.7,0,1.4,0.6,1.4,1.4c0,0.5-0.4,1.1-1,1.1c-0.5,0-1-0.2-1-0.8
		c0-0.4,0.2-0.7,0.6-0.7c-0.1-0.1-0.2-0.1-0.4-0.1c-0.6,0-1,0.8-1,1.4v2.1c0,0.3,0.1,0.5,0.4,0.5h0.5v1h-3.8v-1h0.5
		c0.3,0,0.4-0.2,0.4-0.5v-2.7c0-0.3-0.1-0.5-0.4-0.5h-0.5V83.9z"/>
	<path class="st0" d="M350,81.7v2.2h1.5v1H350v3.3c0,0.3,0.1,0.5,0.4,0.5c0.5,0,0.6-0.3,0.6-0.9v-0.9h1v1.1c0,1.2-0.6,1.8-2,1.8
		c-1.2,0-1.9-0.6-1.9-1.8v-3h-0.8v-1c1.2,0,1.5-1.2,1.6-2.2H350z"/>
	<path class="st0" d="M360.1,85.3c0.8,0,1.4-0.2,1.4-1c0-0.8-0.7-1.2-1.4-1.2c-0.5,0-0.9,0.1-1.2,0.5c0.6,0,1,0.2,1,0.8
		c0,0.6-0.6,0.9-1.1,0.9c-0.6,0-1.1-0.4-1.1-1.1c0-1.5,1.7-2,2.9-2c1.2,0,3.1,0.3,3.1,1.9c0,1-0.7,1.4-1.6,1.6v0
		c1,0.3,1.8,0.7,1.8,1.9c0,1.8-1.5,2.2-3.2,2.2c-1.5,0-3.2-0.3-3.2-2c0-0.8,0.4-1.2,1.2-1.2c0.6,0,1,0.4,1,0.9c0,0.6-0.4,0.9-1,0.9
		c0.2,0.3,0.9,0.4,1.2,0.4c0.9,0,1.8-0.3,1.8-1.3s-0.7-1.2-1.6-1.2V85.3z"/>
</g>
<g>
	<defs>
		<rect id="SVGID_9_" x="46.7" y="31.7" width="360.6" height="526"/>
	</defs>
	<clipPath id="SVGID_2_">
		<use xlink:href="#SVGID_9_"  style="overflow:visible;"/>
	</clipPath>
	<g class="st1">
		<path class="st0" d="M173.9,39.9h-2.5c0-3.1-2.5-5.7-5.7-5.7s-5.7,2.5-5.7,5.7h-2.5c0-4.5,3.7-8.2,8.2-8.2S173.9,35.4,173.9,39.9z
			"/>
	</g>
	<g class="st1">
		<path class="st0" d="M76.9,156.5h-2.5c0-3.1-2.5-5.7-5.7-5.7s-5.7,2.5-5.7,5.7h-2.5c0-4.5,3.7-8.2,8.2-8.2S76.9,152,76.9,156.5z"
			/>
	</g>
	<g class="st1">
		<path class="st0" d="M68.7,440.4c-4.5,0-8.2-3.7-8.2-8.2h2.5c0,3.1,2.5,5.7,5.7,5.7s5.7-2.5,5.7-5.7h2.5
			C76.9,436.7,73.2,440.4,68.7,440.4z"/>
	</g>
	<g class="st1">
		<path class="st0" d="M201.5,39.9H199c0-3.1-2.5-5.7-5.7-5.7c-3.1,0-5.7,2.5-5.7,5.7h-2.5c0-4.5,3.7-8.2,8.2-8.2
			C197.9,31.7,201.5,35.4,201.5,39.9z"/>
	</g>
	<g class="st1">
		<path class="st0" d="M367.9,204.4h-2.5c0-3.1-2.5-5.7-5.7-5.7c-3.1,0-5.7,2.5-5.7,5.7h-2.5c0-4.5,3.7-8.2,8.2-8.2
			C364.2,196.2,367.9,199.8,367.9,204.4z"/>
	</g>
	<g class="st1">
		<path class="st0" d="M326.3,204.3h-2.5c0-3.1-2.5-5.7-5.7-5.7c-3.1,0-5.7,2.5-5.7,5.7H310c0-4.5,3.7-8.2,8.2-8.2
			C322.7,196.1,326.3,199.8,326.3,204.3z"/>
	</g>
	<g class="st1">
		<path class="st0" d="M304.3,404.4c-4.5,0-8.2-3.7-8.2-8.2h2.5c0,3.1,2.5,5.7,5.7,5.7c3.1,0,5.7-2.5,5.7-5.7h2.5
			C312.5,400.7,308.8,404.4,304.3,404.4z"/>
	</g>
	<g class="st1">
		<path class="st0" d="M332,379.9c-4.5,0-8.2-3.7-8.2-8.2h2.5c0,3.1,2.5,5.7,5.7,5.7c3.1,0,5.7-2.5,5.7-5.7h2.5
			C340.2,376.3,336.5,379.9,332,379.9z"/>
	</g>
	<g class="st1">
		<path class="st0" d="M234.9,469.9c-12.2,0-22-9.8-22-21.8h2.5c0,10.7,8.8,19.3,19.5,19.3s19.5-8.7,19.5-19.3h2.5
			C257,460.1,247.1,469.9,234.9,469.9z"/>
	</g>
	<g class="st1">
		<path class="st0" d="M234.9,508c-19.8,0-35.9-16.1-35.9-35.9h2.5c0,18.4,15,33.4,33.4,33.4c18.4,0,33.4-15,33.4-33.4h2.5
			C270.8,491.9,254.7,508,234.9,508z"/>
	</g>
	<g class="st1">
		<path class="st0" d="M138,420.1c-19.8,0-35.9-16.1-35.9-35.9h2.5c0,18.4,15,33.4,33.4,33.4s33.4-15,33.4-33.4h2.5
			C173.9,404,157.8,420.1,138,420.1z"/>
	</g>
	<g class="st1">
		<path class="st0" d="M235,557.7c-27.4,0-49.7-22.3-49.7-49.7h2.5c0,26,21.2,47.2,47.2,47.2c26,0,47.2-21.2,47.2-47.2h2.5
			C284.7,535.4,262.4,557.7,235,557.7z"/>
	</g>
	<g class="st1">
		<path class="st0" d="M234.9,444.4c-4.5,0-8.2-3.7-8.2-8.2h2.5c0,3.1,2.5,5.7,5.7,5.7s5.7-2.5,5.7-5.7h2.5
			C243.1,440.7,239.4,444.4,234.9,444.4z"/>
	</g>
	<g class="st1">
		<path class="st0" d="M138.1,355.8c-4.5,0-8.2-3.7-8.2-8.2h2.5c0,3.1,2.5,5.7,5.7,5.7c3.1,0,5.7-2.5,5.7-5.7h2.5
			C146.3,352.1,142.6,355.8,138.1,355.8z"/>
	</g>
	<g class="st1">
		<path class="st0" d="M138.1,382.6c-12.2,0-22-9.9-22-22h2.5c0,10.8,8.8,19.5,19.5,19.5s19.5-8.8,19.5-19.5h2.5
			C160.1,372.7,150.3,382.6,138.1,382.6z"/>
	</g>
	<g class="st1">
		<path class="st0" d="M373.6,356.5c-4.5,0-8.2-3.7-8.2-8.2h2.5c0,3.1,2.5,5.7,5.7,5.7c3.1,0,5.7-2.5,5.7-5.7h2.5
			C381.8,352.8,378.1,356.5,373.6,356.5z"/>
	</g>
	<g class="st1">
		<path class="st0" d="M298.5,204.5H296c0-10.8-8.8-19.5-19.5-19.5c-10.8,0-19.5,8.8-19.5,19.5h-2.5c0-12.2,9.9-22,22-22
			C288.6,182.4,298.5,192.3,298.5,204.5z"/>
	</g>
	<g class="st1">
		<path class="st0" d="M146.5,156.3H144c0-10.8-8.8-19.5-19.5-19.5s-19.5,8.8-19.5,19.5h-2.5c0-12.2,9.9-22,22-22
			C136.6,134.2,146.5,144.1,146.5,156.3z"/>
	</g>
	<g class="st1">
		<path class="st0" d="M90.8,156.3h-2.5c0-10.8-8.8-19.5-19.5-19.5s-19.5,8.8-19.5,19.5h-2.5c0-12.2,9.9-22,22-22
			S90.8,144.1,90.8,156.3z"/>
	</g>
	<g class="st1">
		<path class="st0" d="M312.5,204.5H310c0-18.4-15-33.4-33.4-33.4s-33.4,15-33.4,33.4h-2.5c0-19.8,16.1-35.9,35.9-35.9
			C296.4,168.6,312.5,184.7,312.5,204.5z"/>
	</g>
	<g class="st1">
		<path class="st0" d="M381.8,204.5h-2.5c0-10.8-8.8-19.5-19.5-19.5c-10.8,0-19.5,8.8-19.5,19.5h-2.5c0-12.2,9.9-22,22-22
			C371.9,182.4,381.8,192.3,381.8,204.5z"/>
	</g>
	<g class="st1">
		<path class="st0" d="M68.7,454c-12.2,0-22-9.9-22-22h2.5c0,10.8,8.8,19.5,19.5,19.5s19.5-8.8,19.5-19.5h2.5
			C90.8,444.1,80.9,454,68.7,454z"/>
	</g>
	<g class="st1">
		<path class="st0" d="M160.1,156.3h-2.5c0-18.5-15-33.5-33.4-33.5s-33.4,15-33.4,33.5h-2.5c0-19.9,16.1-36,35.9-36
			C144,120.3,160.1,136.4,160.1,156.3z"/>
	</g>
</g>
<g>
	<path class="st0" d="M137.1,201.5c-2.3,2.3-5.7,3.3-9.6,3.3c-3.9,0-7.2-1.2-9.5-3.6c-1.7-1.8-2.8-4.2-3.1-6.8h2.6
		c0.2,2,1.2,3.9,2.5,5.2c1.8,1.9,4.7,2.8,7.5,2.8c2.9,0,5.9-0.8,7.7-2.5c1.2-1.2,2-2.7,2-4.9c0-3.3-2.5-6.1-6.6-6.6l-6.3-0.8
		c-4.8-0.6-8.4-3.4-8.4-8.6c0-2.8,1.2-4.8,3-6.4c2.1-1.9,5.2-3,8.4-3c3.6,0,7.3,1.5,9.2,3.7c1.4,1.7,2.4,3.5,2.6,5.9h-2.5
		c-0.2-1.7-0.8-3-1.9-4.3c-1.5-1.8-4.3-2.9-7.4-2.9c-2.4,0-4.8,0.6-6.5,2.1c-1.3,1.2-2.3,2.7-2.3,4.9c0,4,2.9,5.6,6,6l6.4,0.8
		c5.3,0.7,8.9,4.5,8.9,9.3C139.7,197.9,138.6,199.9,137.1,201.5z"/>
	<path class="st0" d="M171.4,204.2v-16.7h-19v16.7h-2.5v-34h2.5V185h19v-14.9h2.5v34H171.4z"/>
</g>
<g>
	<path class="st0" d="M171,252.2v-34h2.5v34H171z"/>
	<path class="st0" d="M185.7,252.2v-34h21.8v2.4h-19.2V233h16.9v2.4h-16.9v14.4h19.2v2.4H185.7z"/>
	<path class="st0" d="M217.3,252.2v-34h2.5v31.7h17.7v2.4H217.3z"/>
	<path class="st0" d="M266.3,248.8c-2,2-5,3.4-8.6,3.4h-11.3v-34h11.3c3.6,0,6.6,1.4,8.6,3.4c3.7,3.6,4.1,8.9,4.1,13.6
		S270,245.2,266.3,248.8z M264.4,223.1c-1.7-1.6-4.2-2.5-6.8-2.5h-8.8v29.1h8.8c2.5,0,5-0.9,6.8-2.5c3.2-3.1,3.4-8,3.4-12
		C267.9,231.1,267.6,226.2,264.4,223.1z"/>
	<path class="st0" d="M300.9,249.5c-2.3,2.3-5.7,3.3-9.6,3.3c-3.9,0-7.2-1.2-9.5-3.6c-1.7-1.8-2.8-4.2-3.1-6.8h2.6
		c0.2,2,1.2,3.9,2.5,5.2c1.8,1.9,4.7,2.8,7.5,2.8c2.9,0,5.9-0.8,7.7-2.5c1.2-1.2,2-2.7,2-4.9c0-3.3-2.5-6.1-6.6-6.6l-6.3-0.8
		c-4.8-0.6-8.4-3.4-8.4-8.6c0-2.8,1.2-4.8,3-6.4c2.1-1.9,5.2-3,8.4-3c3.6,0,7.3,1.5,9.2,3.7c1.4,1.7,2.4,3.5,2.6,5.9h-2.5
		c-0.2-1.7-0.8-3-1.9-4.3c-1.5-1.8-4.3-2.9-7.4-2.9c-2.4,0-4.8,0.6-6.5,2.1c-1.3,1.2-2.3,2.7-2.3,4.9c0,4,2.9,5.6,6,6l6.4,0.8
		c5.3,0.7,8.9,4.5,8.9,9.3C303.6,245.9,302.5,247.9,300.9,249.5z"/>
</g>
<g>
	<rect x="171.4" y="39.9" class="st0" width="2.5" height="116.4"/>
</g>
<g>
	<rect x="185.3" y="39.9" class="st0" width="2.5" height="116.4"/>
</g>
<g>
	<rect x="199" y="39.9" class="st0" width="2.5" height="164.2"/>
</g>
<g>
	<rect x="337.7" y="204.4" class="st0" width="2.5" height="167.8"/>
</g>
<g>
	<rect x="157.6" y="264.5" class="st0" width="2.5" height="96.4"/>
</g>
<g>
	<rect x="143.8" y="224.6" class="st0" width="2.5" height="123.1"/>
</g>
<g>
	<rect x="129.9" y="224.6" class="st0" width="2.5" height="123"/>
</g>
<g>
	<rect x="116.1" y="224.6" class="st0" width="2.5" height="136"/>
</g>
<g>
	<rect x="102" y="223.9" class="st0" width="2.5" height="160.3"/>
</g>
<g>
	<rect x="296" y="264.3" class="st0" width="2.5" height="131.9"/>
</g>
<g>
	<rect x="310" y="263.9" class="st0" width="2.5" height="132.3"/>
</g>
<g>
	<rect x="185.3" y="264.3" class="st0" width="2.5" height="243.7"/>
</g>
<g>
	<rect x="254.5" y="264.3" class="st0" width="2.5" height="185.4"/>
</g>
<g>
	<rect x="212.9" y="264.3" class="st0" width="2.5" height="185.4"/>
</g>
<g>
	<rect x="282.2" y="264.3" class="st0" width="2.5" height="243.7"/>
</g>
<g>
	<rect x="171.4" y="264.3" class="st0" width="2.5" height="119.9"/>
</g>
<g>
	<rect x="240.6" y="264.3" class="st0" width="2.5" height="172"/>
</g>
<g>
	<rect x="268.3" y="264.3" class="st0" width="2.5" height="207.8"/>
</g>
<g>
	<rect x="199" y="264.3" class="st0" width="2.5" height="207.8"/>
</g>
<g>
	<rect x="226.7" y="264.3" class="st0" width="2.5" height="171.9"/>
</g>
<g>
	<rect x="323.8" y="204.1" class="st0" width="2.5" height="167.6"/>
</g>
<g>
	<rect x="351.6" y="204.1" class="st0" width="2.5" height="156.1"/>
</g>
<g>
	<rect x="365.4" y="204" class="st0" width="2.5" height="144.2"/>
</g>
<g>
	<rect x="379.3" y="204" class="st0" width="2.5" height="144.2"/>
</g>
<g>
	<rect x="88.3" y="156.3" class="st0" width="2.5" height="275.6"/>
</g>
<g>
	<rect x="74.4" y="156.2" class="st0" width="2.5" height="275.6"/>
</g>
<g>
	<rect x="60.6" y="156.5" class="st0" width="2.5" height="275.6"/>
</g>
<g>
	<defs>
		<rect id="SVGID_11_" x="46.7" y="31.7" width="360.6" height="526"/>
	</defs>
	<clipPath id="SVGID_4_">
		<use xlink:href="#SVGID_11_"  style="overflow:visible;"/>
	</clipPath>
	<g class="st2">
		<rect x="46.7" y="156.2" class="st0" width="2.5" height="276"/>
	</g>
</g>
<g>
	<rect x="157.5" y="39.9" class="st0" width="2.5" height="116.4"/>
</g>
<g>
	<defs>
		<rect id="SVGID_13_" x="46.7" y="31.7" width="360.6" height="526"/>
	</defs>
	<clipPath id="SVGID_6_">
		<use xlink:href="#SVGID_13_"  style="overflow:visible;"/>
	</clipPath>
	<g class="st3">
		<path class="st0" d="M340.2,204.3h-2.5c0-32.8-27.4-59.5-61.2-59.5c-33.7,0-61.2,26.7-61.2,59.5h-2.5c0-34.2,28.6-62,63.7-62
			C311.7,142.2,340.2,170.1,340.2,204.3z"/>
	</g>
</g>
</svg>
